<svg class="col-md-4" version="1.1" xmlns="http://www.w3.org/2000/svg" viewBox="0 0 466 466">
<path d="M458,194.896c-4.418,0-8,3.582-8,8v6.768h-19.907v-6.768c0-4.418-3.582-8-8-8s-8,3.582-8,8v6.768h-19.907v-6.768
	c0-4.418-3.582-8-8-8s-8,3.582-8,8v14.768v32.897h-22.444V111.157h2.932c4.418,0,8-3.582,8-8V56.348V41.58c0-4.418-3.582-8-8-8
	s-8,3.582-8,8v6.768h-19.907V41.58c0-4.418-3.582-8-8-8s-8,3.582-8,8v6.768H294.86V41.58c0-4.418-3.582-8-8-8s-8,3.582-8,8v6.768
	h-19.907V41.58c0-4.418-3.582-8-8-8s-8,3.582-8,8v6.768h-19.907V41.58c0-4.418-3.582-8-8-8s-8,3.582-8,8v6.768H187.14V41.58
	c0-4.418-3.582-8-8-8s-8,3.582-8,8v6.768h-19.907V41.58c0-4.418-3.582-8-8-8s-8,3.582-8,8v6.768h-19.907V41.58c0-4.418-3.582-8-8-8
	s-8,3.582-8,8v14.768v46.809c0,4.418,3.582,8,8,8h2.932v139.404H87.814v-32.897v-14.768c0-4.418-3.582-8-8-8s-8,3.582-8,8v6.768
	H51.907v-6.768c0-4.418-3.582-8-8-8s-8,3.582-8,8v6.768H16v-6.768c0-4.418-3.582-8-8-8s-8,3.582-8,8v14.768V424.42
	c0,4.418,3.582,8,8,8h71.814c4.418,0,8-3.582,8-8v-2h123.844c4.418,0,8-3.582,8-8v-50.161h26.685v50.161c0,4.418,3.582,8,8,8
	h123.844v2c0,4.418,3.582,8,8,8H458c4.418,0,8-3.582,8-8V217.664v-14.768C466,198.477,462.418,194.896,458,194.896z
	 M339.742,250.561h-33.19V111.157h33.19V250.561z M274.622,250.561v-94.242c0-4.418-3.582-8-8-8h-67.243c-4.418,0-8,3.582-8,8
	v94.242h-15.931V111.157h115.104v139.404H274.622z M207.378,250.561v-86.242h51.243v86.242H207.378z M350.674,95.157H115.326V64.348
	h235.349V95.157z M126.258,111.157h33.19v139.404h-33.19V111.157z M71.814,416.42H16V225.664h55.814V416.42z M262.342,406.42
	v-50.161c0-4.418-3.582-8-8-8h-42.685c-4.418,0-8,3.582-8,8v50.161H87.814V300.641h38.707c4.418,0,8-3.582,8-8s-3.582-8-8-8H87.814
	v-18.081h290.372v18.081H156.521c-4.418,0-8,3.582-8,8s3.582,8,8,8h221.665V406.42H262.342z M450,416.42h-55.814V225.664H450V416.42
	z"/>
</svg>
