<svg class="col-md-4" xmlns="http://www.w3.org/2000/svg"
	 viewBox="0 0 371.541 371.541">
<path d="M362.699,246.722c0.307-0.554,0.497-1.182,0.497-1.859c0-1.013-0.399-1.928-1.038-2.617c2.26-1.066,3.827-3.36,3.827-6.024
	c0-2.48-1.357-4.648-3.371-5.791l-3.286-5.209l-3.288,5.209c-2.016,1.143-3.378,3.311-3.378,5.791c0,2.664,1.571,4.959,3.835,6.025
	c-0.639,0.689-1.037,1.604-1.037,2.616c0,0.678,0.189,1.306,0.496,1.859h-18.42c0.307-0.554,0.496-1.182,0.496-1.859
	c0-1.013-0.398-1.928-1.037-2.616c2.264-1.066,3.835-3.361,3.835-6.025c0-2.48-1.366-4.648-3.378-5.791l-3.288-5.209l-3.286,5.209
	c-2.014,1.143-3.375,3.311-3.375,5.791c0,2.664,1.57,4.959,3.832,6.025c-0.639,0.689-1.037,1.604-1.037,2.616
	c0,0.678,0.19,1.306,0.496,1.859h-18.42c0.307-0.554,0.496-1.182,0.496-1.859c0-1.013-0.398-1.927-1.035-2.616
	c2.264-1.064,3.833-3.359,3.833-6.025c0-2.48-1.359-4.648-3.378-5.791l-3.287-5.209l-3.289,5.209
	c-2.012,1.143-3.371,3.311-3.371,5.791c0,2.664,1.568,4.959,3.83,6.024c-0.639,0.689-1.038,1.604-1.038,2.617
	c0,0.678,0.19,1.306,0.497,1.859h-18.414c0.307-0.554,0.497-1.182,0.497-1.859c0-2.134-1.732-3.865-3.868-3.865
	c-0.885,0-1.691,0.309-2.342,0.808l-0.266-1.338c0.801,0.341,1.683,0.53,2.607,0.53c3.678,0,6.657-2.985,6.657-6.663
	c0-2.479-1.357-4.648-3.371-5.791l-3.286-5.209l-3.288,5.209c-0.54,0.306-1.028,0.689-1.46,1.129L238.577,25.358h0.056V9.891
	l-15.626,15.468h-8.73c0.324-0.565,0.524-1.212,0.524-1.911c0-1.014-0.399-1.928-1.037-2.617c2.261-1.064,3.828-3.355,3.828-6.021
	c0-2.486-1.359-4.647-3.371-5.789l-3.288-5.209l-3.288,5.209c-2.018,1.143-3.378,3.303-3.378,5.789c0,2.666,1.571,4.957,3.834,6.021
	c-0.638,0.689-1.036,1.604-1.036,2.617c0,0.699,0.2,1.346,0.524,1.911h-18.475c0.324-0.565,0.524-1.212,0.524-1.911
	c0-1.014-0.398-1.928-1.037-2.617c2.263-1.064,3.833-3.355,3.833-6.021c0-2.486-1.364-4.647-3.378-5.789L185.77,3.81l-3.288,5.209
	c-2.012,1.143-3.378,3.303-3.378,5.789c0,2.666,1.571,4.957,3.834,6.021c-0.638,0.689-1.036,1.604-1.036,2.617
	c0,0.699,0.199,1.346,0.523,1.911h-18.475c0.324-0.565,0.523-1.212,0.523-1.911c0-1.014-0.397-1.928-1.035-2.617
	c2.264-1.063,3.833-3.355,3.833-6.021c0-2.486-1.359-4.647-3.378-5.789l-3.288-5.209l-3.286,5.209
	c-2.014,1.143-3.371,3.303-3.371,5.789c0,2.666,1.567,4.957,3.827,6.021c-0.638,0.689-1.036,1.604-1.036,2.617
	c0,0.699,0.2,1.346,0.523,1.911h-8.728l-15.63-15.468v15.468h0.056L92.44,229.672c-0.432-0.439-0.92-0.823-1.46-1.129l-3.286-5.209
	l-3.288,5.209c-2.012,1.143-3.371,3.312-3.371,5.791c0,3.678,2.979,6.663,6.659,6.663c0.925,0,1.805-0.189,2.605-0.529l-0.266,1.336
	c-0.651-0.499-1.456-0.807-2.34-0.807c-2.138,0-3.868,1.731-3.868,3.865c0,0.678,0.19,1.306,0.497,1.859H65.908
	c0.307-0.554,0.497-1.182,0.497-1.859c0-1.013-0.399-1.928-1.038-2.616c2.261-1.066,3.829-3.361,3.829-6.025
	c0-2.48-1.359-4.648-3.371-5.791l-3.288-5.209l-3.286,5.209c-2.021,1.143-3.378,3.311-3.378,5.791c0,2.665,1.569,4.961,3.834,6.025
	c-0.638,0.689-1.036,1.604-1.036,2.616c0,0.678,0.189,1.306,0.496,1.859h-18.42c0.307-0.554,0.496-1.182,0.496-1.859
	c0-1.013-0.398-1.928-1.037-2.617c2.263-1.065,3.833-3.36,3.833-6.024c0-2.48-1.364-4.648-3.376-5.791l-3.288-5.209l-3.288,5.209
	c-2.012,1.143-3.378,3.311-3.378,5.791c0,2.664,1.572,4.959,3.835,6.024c-0.639,0.689-1.037,1.604-1.037,2.617
	c0,0.678,0.19,1.306,0.497,1.859h-18.42c0.307-0.554,0.497-1.182,0.497-1.859c0-1.013-0.398-1.928-1.037-2.617
	c2.262-1.065,3.833-3.36,3.833-6.024c0-2.48-1.359-4.648-3.378-5.791l-3.286-5.209l-3.288,5.209
	c-2.012,1.143-3.371,3.311-3.371,5.791c0,2.664,1.567,4.959,3.828,6.024c-0.639,0.689-1.037,1.604-1.037,2.617
	c0,0.678,0.189,1.306,0.496,1.859H0V367.73h40.498v-66.646h-2.395v-7.118h17.039v7.118h-2.395v66.646h12.907v-66.646h-2.393v-7.118
	h17.042v7.118H77.91v66.646h12.907v-66.646h-2.395v-7.118h17.043v7.118h-2.393v66.646h59.216v-88.064h46.965v88.064h59.214v-66.646
	h-2.39v-7.118h17.039v7.118h-2.395v66.646h12.907v-66.646h-2.395v-7.118h17.046v7.118h-2.395v66.646h12.907v-66.646h-2.395v-7.118
	h17.037v7.118h-2.392v66.646h40.497V246.722H362.699z M58.312,292.416H34.937v-5.952h3.928v-3.409h5.366v3.409h4.787v-3.409h5.366
	v3.409h3.928V292.416z M83.469,292.416h-23.37v-5.952h3.923v-3.409h5.371v3.409h4.782v-3.409h5.371v3.409h3.923V292.416z
	 M108.631,292.416h-23.37v-5.952h3.923v-3.409h5.37v3.409h4.781v-3.409h5.371v3.409h3.925V292.416z M191.63,214.254h-11.721v-17.337
	h11.721V214.254z M191.63,163.928h-11.721v-17.33h11.721V163.928z M191.63,113.61h-11.721V96.28h11.721V113.61z M191.63,63.291
	h-11.721V45.954h11.721V63.291z M286.278,292.416h-23.37v-5.952h3.925v-3.409h5.371v3.409h4.785v-3.409h5.368v3.409h3.921V292.416z
	 M311.442,292.416H288.07v-5.952h3.923v-3.409h5.373v3.409h4.782v-3.409h5.371v3.409h3.923V292.416z M336.604,292.416h-23.376
	v-5.952h3.927v-3.409h5.368v3.409h4.787v-3.409h5.364v3.409h3.93V292.416z"/>
</svg>
