<svg class="col-md-4" height="50pt" viewBox="0 0 512 512" width="50pt" xmlns="http://www.w3.org/2000/svg" data-name="Layer 1"><path d="m261.131 275.147c1.086.57 2.456 1.3 4.07 2.2a270.845 270.845 0 0 1 4.257-32.206c5.687-29 15.193-49.607 28.254-61.242a4.5 4.5 0 0 1 5.483-.387 118.5 118.5 0 0 1 14.181 11.714c-8.973-25.709-33.957-48.764-45.89-58.684z"/><path d="m298.745 136.177-2 11.688c.58.613 1.16 1.232 1.742 1.864 18.7 20.307 29.066 39.8 30.882 57.987q2.1 2.412 4.258 5.068a186.149 186.149 0 0 1 28.373 48.743l-1.32-28.253c-11.191-48.833-47.64-84.618-61.935-97.097z"/><path d="m347.989 334.372a113.068 113.068 0 0 1 16.346-22.845l-.389-8.336c-9.927-65.181-51.466-101.276-62.842-110.06-22.507 23.6-26.546 76.867-27.188 89.277 16.8 10.2 43.072 28.709 57.634 51.964z"/><path d="m456.077 334.372h6.511c2.592-6.24 9.479-20.752 21.1-31.128-10.447.111-22.7 2.613-30.11 4.515a163.368 163.368 0 0 1 2.499 26.613z"/><path d="m43.221 343.372h426.4v7.804h-426.4z"/><path d="m368.377 205.184 4.572 97.864a108.577 108.577 0 0 1 62.242-27.084c-13.053-32.041-35.475-55.806-66.814-70.78z"/><path d="m438.467 284.732a98.606 98.606 0 0 0 -63.536 28.768 109.544 109.544 0 0 0 -16.571 20.871h88.7a164.326 164.326 0 0 0 -8.593-49.639z"/><path d="m282.431 298.727a252.729 252.729 0 0 0 -26.089-15.92c-28.836 13.984-51.234 39.3-60.962 51.565h125.3c-8.621-11.904-21.673-24.098-38.249-35.645z"/><path d="m55.962 334.372a163.431 163.431 0 0 1 2.5-26.6c-6.284-1.6-19.05-4.474-30.146-4.565 11.644 10.379 18.543 24.916 21.138 31.163z"/><path d="m73.542 284.813a163.754 163.754 0 0 0 -8.568 49.559h88.705a109.544 109.544 0 0 0 -16.571-20.872 98.6 98.6 0 0 0 -63.537-28.769c-.01.028-.02.055-.029.082z"/><path d="m32.512 374.534 450.206 1.947v-16.306h-450.206z"/><path d="m151.362 233.222-1.323 28.3a186.121 186.121 0 0 1 28.377-48.743q2.153-2.659 4.257-5.068c1.816-18.183 12.181-37.68 30.882-57.987.619-.672 1.236-1.33 1.852-1.981l-2.178-12.229c-14.048 10.678-50.661 43.072-61.867 97.708z"/><path d="m208.844 183.511a4.5 4.5 0 0 1 5.483.387c25.26 22.5 30.6 74.45 31.727 94.111q2.772-1.53 5.635-2.941l-11.089-138.557c-11.913 9.908-36.937 33-45.926 58.708a118.539 118.539 0 0 1 14.17-11.708z"/><path d="m139.09 303.048 4.572-97.865c-31.345 14.976-53.766 38.74-66.816 70.781a108.574 108.574 0 0 1 62.244 27.084z"/><path d="m147.7 311.527a113.026 113.026 0 0 1 16.346 22.845h19.991c5.287-7.3 24.921-32.842 53.237-51.113-.476-12.249-3.837-66.414-26.341-90.12-11.38 8.818-52.94 45.032-62.844 110.052z"/></svg>