<svg height="50pt" viewBox="-18 0 512 512.00253" width="50pt" xmlns="http://www.w3.org/2000/svg"><path d="m320 182.859375h137.144531v-18.285156h-438.859375v18.285156zm0 0"/><path d="m438.859375 128.003906h-402.285156v18.285156h402.285156zm0 0"/><path d="m146.285156 201.144531h-128v109.714844h128zm-64 91.429688c-20.195312 0-36.570312-16.375-36.570312-36.570313 0-20.199218 16.375-36.574218 36.570312-36.574218 20.199219 0 36.574219 16.375 36.574219 36.574218 0 20.195313-16.375 36.570313-36.574219 36.570313zm0 0"/><path d="m457.144531 310.859375v-109.714844h-128v109.714844zm-64-91.429687c20.199219 0 36.570313 16.375 36.570313 36.574218 0 20.195313-16.371094 36.570313-36.570313 36.570313s-36.570312-16.375-36.570312-36.570313c0-20.199218 16.371093-36.574218 36.570312-36.574218zm0 0"/><path d="m100.574219 256.003906c0 10.097656-8.1875 18.285156-18.289063 18.285156-10.097656 0-18.285156-8.1875-18.285156-18.285156 0-10.101562 8.1875-18.285156 18.285156-18.285156 10.101563 0 18.289063 8.183594 18.289063 18.285156zm0 0"/><path d="m411.429688 256.003906c0 10.097656-8.1875 18.285156-18.285157 18.285156-10.097656 0-18.285156-8.1875-18.285156-18.285156 0-10.101562 8.1875-18.285156 18.285156-18.285156 10.097657 0 18.285157 8.183594 18.285157 18.285156zm0 0"/><path d="m365.714844 82.289062c0 15.148438-12.28125 27.429688-27.429688 27.429688-15.148437 0-27.425781-12.28125-27.425781-27.429688 0-15.148437 12.277344-27.429687 27.425781-27.429687 15.148438 0 27.429688 12.28125 27.429688 27.429687zm0 0"/><path d="m263.222656 36.574219h75.0625v-18.285157h-67.5625c-3.355468 0-6.4375-1.835937-8.039062-4.78125-5.507813-8.429687-14.898438-13.507812-24.96875-13.507812-10.066406 0-19.457032 5.078125-24.96875 13.507812-1.597656 2.945313-4.683594 4.78125-8.035156 4.78125h-67.566407v18.285157zm0 0"/><path d="m91.429688 82.289062c.035156-9.925781 3.328124-19.5625 9.378906-27.429687h-27.664063v54.859375h27.664063c-6.050782-7.867188-9.34375-17.507812-9.378906-27.429688zm0 0"/><path d="m402.285156 109.71875v-54.859375h-27.664062c12.503906 16.148437 12.503906 38.710937 0 54.859375zm0 0"/><path d="m263.222656 54.859375h-89.746094c12.503907 16.148437 12.503907 38.710937 0 54.859375h128.476563c-12.503906-16.148438-12.503906-38.710938 0-54.859375zm0 0"/><path d="m164.574219 82.289062c0 15.148438-12.28125 27.429688-27.429688 27.429688-15.148437 0-27.429687-12.28125-27.429687-27.429688 0-15.148437 12.28125-27.429687 27.429687-27.429687 15.148438 0 27.429688 12.28125 27.429688 27.429687zm0 0"/><path d="m155.429688 329.144531h-146.285157c-5.050781 0-9.144531 4.09375-9.144531 9.144531 0 5.046876 4.09375 9.140626 9.144531 9.140626h146.285157c5.050781 0 9.144531-4.09375 9.144531-9.140626 0-5.050781-4.09375-9.144531-9.144531-9.144531zm0 0"/><path d="m329.144531 365.71875h18.285157v45.710938h-18.285157zm0 0"/><path d="m310.859375 201.144531h-64v18.753907c25.484375 2.597656 48.707031 15.785156 64 36.34375zm0 0"/><path d="m329.144531 429.71875h18.285157v82.285156h-18.285157zm0 0"/><path d="m365.714844 429.71875h91.429687v82.285156h-91.429687zm0 0"/><path d="m365.714844 365.71875h91.429687v45.710938h-91.429687zm0 0"/><path d="m466.285156 329.144531h-146.285156c-5.046875 0-9.140625 4.09375-9.140625 9.144531 0 5.046876 4.09375 9.140626 9.140625 9.140626h146.285156c5.050782 0 9.144532-4.09375 9.144532-9.140626 0-5.050781-4.09375-9.144531-9.144532-9.144531zm0 0"/><path d="m18.285156 429.71875h91.429688v82.285156h-91.429688zm0 0"/><path d="m18.285156 365.71875h91.429688v45.710938h-91.429688zm0 0"/><path d="m128 429.71875h18.285156v82.285156h-18.285156zm0 0"/><path d="m164.574219 256.242188c15.289062-20.558594 38.511719-33.746094 64-36.34375v-18.753907h-64zm0 0"/><path d="m128 365.71875h18.285156v45.710938h-18.285156zm0 0"/></svg>