<svg class="col-md-4" height="50pt" viewBox="0 0 56 56" width="50pt" xmlns="http://www.w3.org/2000/svg"><g id="007---Hyderabad-Charminar"><path id="Shape" d="m12 46v10h7v-13h-7zm3 0c0-.5522847.4477153-1 1-1s1 .4477153 1 1v7c0 .5522847-.4477153 1-1 1s-1-.4477153-1-1z"/><path id="Shape" d="m12 41h7v-9h-7zm3-6c0-.5522847.4477153-1 1-1s1 .4477153 1 1v3c0 .5522847-.4477153 1-1 1s-1-.4477153-1-1z"/><path id="Rectangle-path" d="m12 28h7v2h-7z"/><path id="Shape" d="m28 41.41c-2.56 2.23-3 3.44-3 5.18v9.41h6v-9.41c0-1.74-.45-2.95-3-5.18z"/><path id="Rectangle-path" d="m21 32h14v3h-14z"/><path id="Shape" d="m21 42v14h2v-9.41c0-2.59.93-4.28 3.67-6.68.7581689-.6750844 1.9018311-.6750844 2.66 0 2.74 2.4 3.67 4.09 3.67 6.68v9.41h2v-19h-14z"/><path id="Shape" d="m0 41h10v-9h-10zm6-5c0-.5522847.44771525-1 1-1s1 .4477153 1 1v2c0 .5522847-.44771525 1-1 1s-1-.4477153-1-1zm-4 0c0-.5522847.44771525-1 1-1s1 .4477153 1 1v2c0 .5522847-.44771525 1-1 1s-1-.4477153-1-1z"/><path id="Shape" d="m1 28h-1v2h10v-2h-1z"/><path id="Rectangle-path" d="m0 47h10v9h-10z"/><path id="Shape" d="m9 16h1l-.02-2h-3.51-2.94-3.51l-.02 2h1z"/><path id="Shape" d="m8 26v-3-5h-6v8z"/><path id="Rectangle-path" d="m0 43h10v2h-10z"/><path id="Rectangle-path" d="m21 28h14v2h-14z"/><path id="Shape" d="m37 36v5h7v-9h-7zm2-1c0-.5522847.4477153-1 1-1s1 .4477153 1 1v3c0 .5522847-.4477153 1-1 1s-1-.4477153-1-1z"/><path id="Rectangle-path" d="m46 47h10v9h-10z"/><path id="Shape" d="m46 41h10v-9h-10zm6-5c0-.5522847.4477153-1 1-1s1 .4477153 1 1v2c0 .5522847-.4477153 1-1 1s-1-.4477153-1-1zm-4 0c0-.5522847.4477153-1 1-1s1 .4477153 1 1v2c0 .5522847-.4477153 1-1 1s-1-.4477153-1-1z"/><path id="Rectangle-path" d="m46 43h10v2h-10z"/><path id="Shape" d="m49.53 12h2.94c1.9495652 0 3.53-1.5804348 3.53-3.53 0-1.9-.93-2.88-2.1-4.12-.6547985-.64814085-1.2412157-1.3618944-1.75-2.13-.4347217-.71222752-.8189964-1.45404465-1.15-2.22-.3008969.76483397-.676023 1.49833943-1.12 2.19-.5079987.76589431-1.0908636 1.47940133-1.74 2.13-1.21 1.26-2.14 2.25-2.14 4.15 0 1.9495652 1.5804348 3.53 3.53 3.53z"/><path id="Shape" d="m47 28h-1v2h10v-2h-1z"/><path id="Shape" d="m48 18v5 3h6v-8z"/><path id="Shape" d="m52.47 14h-2.94-3.51l-.02 2h1 8 1l-.02-2z"/><path id="Shape" d="m37 56h7v-13h-7zm2-10c0-.5522847.4477153-1 1-1s1 .4477153 1 1v7c0 .5522847-.4477153 1-1 1s-1-.4477153-1-1z"/><path id="Rectangle-path" d="m37 28h7v2h-7z"/><path id="Shape" d="m3.53 12h2.94c1.94956517 0 3.53-1.5804348 3.53-3.53 0-1.9-.93-2.88-2.1-4.12-.6547985-.64814085-1.24121574-1.3618944-1.75-2.13-.43472172-.71222752-.81899636-1.45404465-1.15-2.22-.3092658.77290265-.69448762 1.51319851-1.15 2.21-.50799867.76589431-1.09086356 1.47940133-1.74 2.13-1.18 1.24-2.11 2.23-2.11 4.13 0 1.9495652 1.58043483 3.53 3.53 3.53z"/><path id="Shape" d="m46 24h-36v2h1 9 16 9 1z"/></g></svg>