<svg class="col-md-4" height="50pt" viewBox="0 0 512 512" width="50pt" xmlns="http://www.w3.org/2000/svg"><path d="m0 361h163.753906c12.398438-22.9375 33.070313-41.085938 59.039063-49.730469l33.207031-11.074219 33.207031 11.074219c25.96875 8.644531 46.640625 26.792969 59.039063 49.730469h163.753906v-90h-512zm0 0"/><path d="m279.714844 339.714844-23.714844-7.910156-23.714844 7.910156c-30.675781 10.226562-51.285156 38.820312-51.285156 71.148437v101.136719h150v-101.136719c0-32.328125-20.609375-60.921875-51.285156-71.148437zm0 0"/><path d="m151 410.863281c0-6.785156.84375-13.382812 2.089844-19.863281h-153.089844v121h151zm0 0"/><path d="m361 410.863281v101.136719h151v-121h-153.089844c1.246094 6.480469 2.089844 13.078125 2.089844 19.863281zm0 0"/><path d="m451 153.753906c-17.4375 6.199219-30 22.679688-30 42.246094v45h91v-241h-61zm0 0"/><path d="m91 196c0-19.566406-12.5625-36.046875-30-42.246094v-153.753906h-61v241h91zm0 0"/><path d="m211 226v15h90v-15c0-24.8125-20.1875-45-45-45s-45 20.1875-45 45zm0 0"/><path d="m181 226c0-41.351562 33.648438-75 75-75s75 33.648438 75 75v15h60v-150h-31.515625c-7.355469-50.75-50.730469-91-103.484375-91s-96.128906 40.25-103.484375 91h-31.515625v150h60zm0 0"/></svg>