<svg class="col-md-4" height="50pt" viewBox="0 0 469.334 469" width="50pt" xmlns="http://www.w3.org/2000/svg"><path d="m15.4375 148.375-9.542969-19.082031c22.597657-11.199219 36.859375-34.273438 36.773438-59.492188v-69.632812h21.332031v69.632812c.113281 33.308594-18.71875 63.78125-48.5625 78.574219zm0 0" /><path d="m202.667969 234.832031c-88.230469 0-160-71.769531-160-160v-74.664062h21.332031v74.664062c0 76.460938 62.207031 138.667969 138.667969 138.667969 76.457031 0 138.664062-62.207031 138.664062-138.667969v-32h21.335938v32c0 88.230469-71.773438 160-160 160zm0 0" /><path d="m341.332031 42.832031h21.335938v384h-21.335938zm0 0" /><path d="m362.667969 106.832031s0 21.335938 21.332031 21.335938c0 0 21.332031 0 21.332031-21.335938h21.335938v64h-21.335938s0-21.332031-21.332031-21.332031c0 0-21.332031 0-21.332031 21.332031h-21.335938v-64zm0 0" /><g><path d="m344.457031 408.625 62.460938-62.457031 15.082031 15.082031-62.457031 62.457031zm0 0"/><path d="m344.457031 359.707031 15.085938-15.082031 64 64-15.085938 15.082031zm0 0"/><path d="m67.125 359.707031 15.082031-15.082031 106.667969 106.667969-15.082031 15.082031zm0 0"/><path d="m67.125 451.292969 106.667969-106.667969 15.082031 15.082031-106.667969 106.667969zm0 0"/></g><path d="m85.332031 21.5s0 21.332031 21.335938 21.332031h42.664062s21.335938 0 21.335938-21.332031h21.332031v64h-21.332031s0-21.332031-21.335938-21.332031h-42.664062s-21.335938 0-21.335938 21.332031h-21.332031v-64zm0 0" /><path d="m362.667969 192.167969s0 21.332031 21.332031 21.332031c0 0 21.332031 0 21.332031-21.332031h21.335938v64h-21.335938s0-21.335938-21.332031-21.335938c0 0-21.332031 0-21.332031 21.335938h-21.335938v-64zm0 0" /><path d="m362.667969 277.5s0 21.332031 21.332031 21.332031c0 0 21.332031 0 21.332031-21.332031h21.335938v64h-21.335938s0-21.332031-21.332031-21.332031c0 0-21.332031 0-21.332031 21.332031h-21.335938v-64zm0 0"/><path d="m85.332031 128.167969s0 21.332031 21.335938 21.332031h42.664062s21.335938 0 21.335938-21.332031h21.332031v64h-21.332031s0-21.335938-21.335938-21.335938h-42.664062s-21.335938 0-21.335938 21.335938h-21.332031v-64zm0 0" /><path d="m85.332031 234.832031s0 21.335938 21.335938 21.335938h42.664062s21.335938 0 21.335938-21.335938h21.332031v64h-21.332031s0-21.332031-21.335938-21.332031h-42.664062s-21.335938 0-21.335938 21.332031h-21.332031v-64zm0 0" /><path d="m42.667969.167969h42.664062v469.332031h-42.664062zm0 0"/><path d="m64 341.5h106.667969v21.332031h-106.667969zm0 0"/><path d="m42.667969.167969h21.332031v469.332031h-21.332031zm0 0" /><path d="m42.667969 341.5h21.332031v42.667969h-21.332031zm0 0"/><path d="m469.335938 277.5-469.335938 85.332031v-106.664062h469.335938zm0 0" /><path d="m213.332031 256.167969h21.335938v64h-21.335938zm0 0"/><path d="m469.335938 277.5-469.335938 21.332031v-42.664062h469.335938zm0 0"/><path d="m405.332031 42.832031h21.335938v384h-21.335938zm0 0"/><path d="m405.332031 85.5h21.335938v106.667969h-21.335938zm0 0" /><path d="m170.667969.167969h42.664062v469.332031h-42.664062zm0 0"/><path d="m309.332031 234.832031c-64.769531-.074219-117.253906-52.5625-117.332031-117.332031v-117.332031h21.332031v117.332031c0 53.019531 42.980469 96 96 96s96-42.980469 96-96v-74.667969h21.335938v74.667969c-.078125 64.769531-52.566407 117.257812-117.335938 117.332031zm0 0" /><path d="m453.894531 191.042969c-29.839843-14.792969-48.675781-45.265625-48.5625-78.574219v-69.636719h21.335938v69.636719c-.085938 25.21875 14.175781 48.292969 36.769531 59.488281zm0 0" /><path d="m170.667969.167969h21.332031v469.332031h-21.332031zm0 0"/><path d="m170.667969.167969h21.332031v192h-21.332031zm0 0" /><path d="m341.332031 234.832031h21.335938v21.335938h-21.335938zm0 0"/><path d="m64 448.167969h106.667969v21.332031h-106.667969zm0 0"/><path d="m341.332031 405.5h64v21.332031h-64zm0 0"/><path d="m341.332031 341.5h64v21.332031h-64zm0 0"/><path d="m426.667969 256.167969h21.332031v21.332031h-21.332031zm0 0" /><path d="m341.332031 298.832031h21.335938v128h-21.335938zm0 0"/><path d="m64 234.832031h21.332031v21.335938h-21.332031zm0 0"/><path d="m234.667969 288.167969v-32h-21.332031v32.96875zm0 0" /><path d="m38.375 234.832031h-38.375v-21.332031h38.375c46.695312.105469 90.878906-21.132812 119.957031-57.667969 21.761719-27.257812 33.628907-61.089843 33.667969-95.96875v-59.695312h21.332031v59.695312c-.046875 39.722657-13.5625 78.253907-38.332031 109.304688-33.125 41.601562-83.445312 65.785156-136.625 65.664062zm0 0" /></svg>