<svg version="1.1" id="Capa_1" xmlns="http://www.w3.org/2000/svg" viewBox="0 0 511.999 511.999">
		<path d="M450.442,337.82c-2.337-1.331-5.201-1.332-7.534-0.002c-8.508,4.848-15.597,11.888-20.492,20.344
			c-4.914,8.443-7.51,18.086-7.51,27.886v19.459c0,4.2,3.404,7.605,7.605,7.605c4.201,0,7.605-3.405,7.605-7.605v-19.459
			c0-7.116,1.883-14.113,5.456-20.251c2.805-4.846,6.596-9.045,11.1-12.329c10.312,7.527,16.56,19.642,16.56,32.58v19.459
			c0,4.2,3.404,7.605,7.605,7.605c4.201,0,7.605-3.405,7.605-7.605v-19.459C478.442,366.154,467.713,347.674,450.442,337.82z"/>
		<path d="M504.395,298.196h-17.223v-37.248h4.056c4.201,0,7.605-3.405,7.605-7.605c0-4.2-3.404-7.605-7.605-7.605h-98.41v-66.561
			h2.082c4.201,0,7.605-3.405,7.605-7.605c0-4.2-3.404-7.605-7.605-7.605h-2.082v-34.162h1.459c4.201,0,7.605-3.405,7.605-7.605
			s-3.404-7.605-7.605-7.605h-1.459v-3.135c0-13.69-6.072-26.655-16.393-35.458v-11.75c0-4.2-3.404-7.605-7.605-7.605
			s-7.605,3.405-7.605,7.605v11.751c-10.321,8.802-16.393,21.768-16.393,35.458v3.135h-1.459c-4.201,0-7.605,3.405-7.605,7.605
			c0,4.2,3.404,7.605,7.605,7.605h1.459v34.162h-8.731c-4.201,0-7.605,3.405-7.605,7.605c0,4.2,3.404,7.605,7.605,7.605h8.731
			v66.562H256h-88.824v-66.563h143.563c4.201,0,7.605-3.405,7.605-7.605c0-4.2-3.404-7.605-7.605-7.605H167.177v-34.162h1.459
			c4.201,0,7.605-3.405,7.605-7.605s-3.404-7.605-7.605-7.605h-1.459v-3.135c0-13.69-6.072-26.655-16.393-35.458v-11.75
			c0-4.2-3.404-7.605-7.605-7.605s-7.605,3.405-7.605,7.605v11.751c-10.321,8.802-16.393,21.768-16.393,35.458v3.135h-1.459
			c-4.201,0-7.605,3.405-7.605,7.605c0,4.2,3.404,7.605,7.605,7.605h1.459v34.162H117.1c-4.201,0-7.605,3.405-7.605,7.605
			c0,4.2,3.404,7.605,7.605,7.605h2.082v66.562H20.773c-4.201,0-7.605,3.405-7.605,7.605c0,4.2,3.404,7.605,7.605,7.605h4.056
			v37.248H7.605c-4.201,0-7.605,3.405-7.605,7.605c0,4.2,3.404,7.605,7.605,7.605h1.64v134.338c0,4.2,3.404,7.605,7.605,7.605
			h181.341c4.201,0,7.605-3.405,7.605-7.605v-65.728h0.91c4.077,0,7.429-3.215,7.598-7.289
			c1.091-26.302,16.592-49.983,41.698-64.029c25.105,14.047,40.605,37.727,41.696,64.029c0.168,4.074,3.52,7.289,7.598,7.289h0.911
			v65.728c0,4.2,3.404,7.605,7.605,7.605h181.34c4.201,0,7.605-3.405,7.605-7.605v-134.34h1.64c4.201,0,7.605-3.405,7.605-7.605
			C511.999,301.601,508.596,298.196,504.395,298.196z M134.392,111.461c0-8.18,3.21-15.984,8.788-21.781
			c5.578,5.797,8.788,13.601,8.788,21.781v3.135h-17.576V111.461z M134.392,129.805h17.576v34.162h-17.576V129.805z
			 M134.392,179.177h17.576v66.562h-17.576V179.177z M128.992,260.948h28.376v37.248h-28.376V260.948z M40.039,260.949h73.744
			v37.248h-0.399H40.039V260.949z M57.153,440.139c1.18-5.866,4.019-11.297,8.174-15.616c2.108,2.19,3.902,4.684,5.296,7.382
			c1.337,2.597,2.295,5.379,2.869,8.234H57.153z M165.375,440.138h-44.388V364.95c0-4.2-3.404-7.605-7.605-7.605
			s-7.605,3.405-7.605,7.605v75.19H88.9c-0.71-5.283-2.311-10.451-4.761-15.207c-3.398-6.573-8.376-12.315-14.4-16.605
			c-2.64-1.88-6.182-1.88-8.822,0c-10.575,7.53-17.463,19.12-19.165,31.813H24.454V313.405h9.098v6.796
			c0,4.2,3.404,7.605,7.605,7.605s7.605-3.405,7.605-7.605v-6.796h8.962v6.796c0,4.2,3.404,7.605,7.605,7.605
			s7.605-3.405,7.605-7.605v-6.796h8.962v6.796c0,4.2,3.404,7.605,7.605,7.605s7.605-3.405,7.605-7.605v-6.796h8.674v26.193
			c0,4.2,3.404,7.605,7.605,7.605c4.201,0,7.605-3.405,7.605-7.605v-26.193h44.387V440.138z M339.424,298.196h-0.403H327.98
			c-4.201,0-7.605,3.405-7.605,7.605c0,4.2,3.404,7.605,7.605,7.605h3.437v126.733h-10v-65.728
			c-0.002-4.199-3.406-7.604-7.607-7.604h-1.527c-3.792-30.063-23.125-56.432-52.843-71.507c-2.163-1.097-4.717-1.097-6.88,0
			c-29.719,15.075-49.052,41.444-52.844,71.507h-1.526c-4.201,0-7.605,3.405-7.605,7.605v65.728h-10.001V313.405h3.438
			c4.201,0,7.605-3.405,7.605-7.605c0-4.2-3.404-7.605-7.605-7.605H172.98h-0.403v-37.248h15.647v16.798
			c0,4.2,3.404,7.605,7.605,7.605s7.605-3.405,7.605-7.605v-16.798h14.876v16.798c0,4.2,3.404,7.605,7.605,7.605
			s7.605-3.405,7.605-7.605v-16.798h14.877v16.798c0,4.2,3.404,7.605,7.605,7.605c4.201,0,7.605-3.405,7.605-7.605v-16.798h14.876
			v16.798c0,4.2,3.404,7.605,7.605,7.605s7.605-3.405,7.605-7.605v-16.798h14.877v16.798c0,4.2,3.404,7.605,7.605,7.605
			c4.201,0,7.605-3.405,7.605-7.605v-16.798h15.647V298.196z M360.032,163.967v-34.162h17.576v34.162H360.032z M377.608,179.177
			v66.562h-17.576v-66.562H377.608z M360.032,111.461L360.032,111.461c0-8.18,3.21-15.984,8.788-21.781
			c5.578,5.797,8.788,13.601,8.788,21.781v3.135h-17.576V111.461z M354.633,260.948h28.376v37.248h-28.376V260.948z
			 M391.012,440.138h-44.387V313.405h44.387V440.138z M398.218,298.196v-37.248h73.744v37.248h-73.345H398.218z M438.51,440.139
			c0.573-2.854,1.529-5.634,2.862-8.225c1.397-2.704,3.192-5.2,5.302-7.392c4.155,4.32,6.993,9.75,8.174,15.617H438.51z
			 M487.547,440.139L487.547,440.139h-17.298c-1.702-12.691-8.59-24.283-19.164-31.812c-2.641-1.88-6.182-1.88-8.822,0
			c-6.025,4.289-11.006,10.031-14.407,16.616c-2.445,4.749-4.045,9.916-4.755,15.197h-16.88V313.405h8.674v6.796
			c0,4.2,3.404,7.605,7.605,7.605s7.605-3.405,7.605-7.605v-6.796h8.962v6.796c0,4.2,3.404,7.605,7.605,7.605
			c4.201,0,7.605-3.405,7.605-7.605v-6.796h8.961v6.796c0,4.2,3.404,7.605,7.605,7.605c4.201,0,7.605-3.405,7.605-7.605v-6.796
			h9.098V440.139z"/>
		<path d="M332.034,139.281H179.966c-4.2,0-7.605,3.405-7.605,7.605c0,4.2,3.404,7.605,7.605,7.605h152.067
			c4.201,0,7.605-3.405,7.605-7.605C339.638,142.686,336.234,139.281,332.034,139.281z"/>
		<path d="M89.593,358.179c-4.904-8.472-11.992-15.513-20.5-20.361c-2.334-1.331-5.2-1.33-7.534,0.002
			c-17.27,9.854-27.999,28.333-27.999,48.228v19.459c0,4.2,3.404,7.605,7.605,7.605s7.605-3.405,7.605-7.605v-19.459
			c0-12.938,6.248-25.053,16.56-32.58c4.505,3.284,8.297,7.487,11.108,12.344c3.565,6.124,5.448,13.122,5.448,20.237v19.459
			c0,4.2,3.404,7.605,7.605,7.605s7.605-3.405,7.605-7.605V386.05C97.096,376.251,94.498,366.608,89.593,358.179z"/>
		<path d="M479.567,223.5h-73.514c-4.201,0-7.605,3.404-7.605,7.605c0,4.2,3.404,7.605,7.605,7.605h73.514
			c4.201,0,7.605-3.405,7.605-7.605S483.768,223.5,479.567,223.5z"/>
		<path d="M105.947,223.5H32.434c-4.201,0-7.605,3.405-7.605,7.605s3.405,7.605,7.605,7.605h73.513c4.201,0,7.605-3.405,7.605-7.605
			S110.148,223.5,105.947,223.5z"/>
</svg>
