<svg class="col-md-4" xmlns="http://www.w3.org/2000/svg"
	 viewBox="0 0 281.25 281.25">
			<path d="M281.138,246.094l-4.622-189.488l-8.733-8.728l-14.063,9.375l-8.756-8.756l3.052-6.713l-8.531-3.877l-3.45,7.584
				L225,51.009v-1.791v-3.38l-14.063-4.688V30.469h-9.375v10.683l-9.375,3.127l-14.063-4.688l-13.917,4.641l-18.895-7.561v-10.89
				h-9.375V36.67l-18.895,7.556l-13.917-4.636l-14.063,4.688l-9.375-3.127V30.469h-9.375v10.683L56.25,45.839v5.17l-11.034-5.517
				l-3.45-7.584l-8.531,3.877l3.052,6.712l-8.756,8.756l-14.063-9.375l-8.733,8.728L0.112,246.094H0v9.375h93.75h18.75h56.25h18.75
				h93.75v-9.375H281.138z M18.862,246.094h-9.37l0.572-23.438h9.384L18.862,246.094z M19.683,213.281h-9.389l2.4-98.438h9.45
				L19.683,213.281z M22.378,105.469h-9.455l1.093-44.888l0.642-0.647l8.714,5.808L22.378,105.469z M56.25,246.094H28.247
				l0.586-23.438H56.25V246.094z M56.25,213.282H29.067l2.461-98.438H56.25V213.282z M56.25,105.469H31.763l1.003-40.2l7.659-7.659
				L56.25,92.419V105.469z M56.25,69.769l-4.87-10.711l4.87,2.433V69.769z M225,61.491l4.87-2.433L225,69.769V61.491z M225,92.419
				l15.825-34.809l7.659,7.659l1.003,40.2H225V92.419z M225,114.843h24.722l2.461,98.438H225V114.843z M93.75,246.094H65.625v-9.375
				H93.75V246.094z M159.375,246.094h-37.5v-42.188c0-10.341,8.409-18.75,18.75-18.75s18.75,8.409,18.75,18.75V246.094z
				 M159.375,183c-4.983-4.472-11.541-7.219-18.75-7.219s-13.767,2.747-18.75,7.219v-11.906h37.5V183z M178.125,246.094h-9.375
				v-84.375H112.5v84.375h-9.375v-93.75h75V246.094z M215.625,246.094H187.5v-9.375h28.125V246.094z M215.625,227.344h-9.375v-37.5
				h-9.375v37.5H187.5v-84.375H93.75v84.375h-9.375v-37.5H75v37.5h-9.375V96.094h150V227.344z M215.625,86.718h-150v-34.12
				L75,49.472l9.375,3.127v10.683h9.375V52.598l9.375-3.127l9.375,3.127v10.683h9.375V52.392l18.75-7.5l18.75,7.5v10.889h9.375
				V52.598l9.375-3.127l9.375,3.127v10.683h9.375V52.598l9.375-3.127l9.375,3.127V86.718z M225,246.094v-23.438h27.417l0.586,23.438
				H225z M257.873,65.747l8.714-5.808l0.647,0.642l1.092,44.888h-9.459L257.873,65.747z M259.101,114.843h9.45l2.405,98.438h-9.394
				L259.101,114.843z M262.388,246.094l-0.586-23.438h9.384l0.572,23.438H262.388z"/>
			<path d="M164.063,105.469h-46.875v28.125h46.875V105.469z M154.688,124.219h-28.125v-9.375h28.125V124.219z"/>
</svg>
