<svg xmlns="http://www.w3.org/2000/svg" xmlns:xlink="http://www.w3.org/1999/xlink" width="127.302" height="97.945" viewBox="0 0 127.302 97.945"><defs><style>.a{fill:none;}.b{fill:#1c2935;}.c{fill:#394659;}.d{fill:#617487;}.e{clip-path:url(#a);}.f{fill:#293542;}.g{fill:#efe075;}.h{fill:#fecdba;}.i{fill:#efac98;}.j{fill:#e28677;}.k{fill:#ffeeea;}.l{fill:#fff;}.m{fill:#e7f0f7;}.n{fill:#e05f69;}.o{fill:#ee7475;}.p{fill:#d1a684;}.q{fill:#efc8ac;}.r{fill:#bc8c6c;}.s{fill:#9b6a51;}.t{fill:#aca7ce;}.u{fill:#cecce2;}.v{fill:#9693ba;}.w{fill:#807fa5;}.x{clip-path:url(#b);}.y{fill:#cfdae2;}.z{clip-path:url(#d);}.aa{fill:#4e6172;}.ab{fill:#77a5ed;}.ac{fill:#6591d1;}.ad{fill:#517bad;}.ae{fill:#f7eba9;}.af{fill:#ddc168;}.ag{fill:#d3a85e;}.ah{clip-path:url(#f);}.ai{clip-path:url(#g);}.aj{clip-path:url(#j);}.ak{clip-path:url(#k);}.al{clip-path:url(#l);}.am{clip-path:url(#n);}.an{clip-path:url(#o);}.ao{clip-path:url(#p);}.ap{fill:#73a5f4;}.aq{fill:#fb7373;}</style><clipPath id="a"><rect class="a" width="127.302" height="97.945"/></clipPath><clipPath id="b"><rect class="a" width="14.441" height="5.645"/></clipPath><clipPath id="d"><rect class="a" width="4.648" height="13.592"/></clipPath><clipPath id="f"><rect class="a" width="3.398" height="4.808"/></clipPath><clipPath id="g"><rect class="a" width="1.699" height="3.959"/></clipPath><clipPath id="j"><rect class="a" width="14.441" height="1.396"/></clipPath><clipPath id="k"><rect class="a" width="9.343" height="1.396"/></clipPath><clipPath id="l"><rect class="a" width="7.645" height="1.396"/></clipPath><clipPath id="n"><rect class="a" width="15.289" height="1.396"/></clipPath><clipPath id="o"><rect class="a" width="10.193" height="1.396"/></clipPath><clipPath id="p"><rect class="a" width="6.796" height="1.396"/></clipPath></defs><path class="b" d="M148.615,26.714l-.6,4.5h.945Z" transform="translate(-53.718 -9.695)"/><path class="c" d="M164.231,27.912l-5.943,1.367h-6.235l-3.7-5.585-.7-1.055-.362-.547,11.252-3.7.143.236,1.8,3.006Z" transform="translate(-53.453 -6.676)"/><path class="d" d="M158.683,18.632,147.65,22.64l-.361-.548,11.252-3.7Z" transform="translate(-53.454 -6.676)"/><g class="e"><path class="f" d="M164.624,29.385l-5.574,1.281H153.2l-1.961-2.956-1.51-2.279c1.078.159,1.181-.87,2.017-1.334,1.086-.6,3.089-2.174,5.492-.209,1.437,1.175,2.913.415,3.868-.385l1.4,2.346Z" transform="translate(-54.34 -8.322)"/><path class="b" d="M165.484,31.048l-5.574,1.281h-5.846L152.1,29.373a23.758,23.758,0,0,0,6.171.255c2.917-.262,4.374-1.2,5.1-2.117Z" transform="translate(-55.2 -9.984)"/><path class="c" d="M161.748,28.941l-1.261.524-6.67-2.94-.65-.285-.368-.713-.468-.9a7.8,7.8,0,0,1,.836-.445c1.2-.564,3.474-1.327,5.239-.185a4.779,4.779,0,0,1,.442.315,9.423,9.423,0,0,1,2.9,4.629" transform="translate(-55.283 -8.494)"/><path class="d" d="M153.817,26.969l-.65-.285-.368-.714-.468-.9a7.689,7.689,0,0,1,.836-.445,5.684,5.684,0,0,0,.65,2.343" transform="translate(-55.283 -8.937)"/><path class="f" d="M161.764,29.383l-1.1.458-6.371-2.811-.319-.617a5.747,5.747,0,0,1,2.618-.65c2.064,0,2.058.78,2.469.319a.954.954,0,0,0,.18-.727,8.19,8.19,0,0,1,2.522,4.028" transform="translate(-55.88 -9.202)"/><path class="g" d="M130.76,17.688l-4.971,8.02s4.234-.68,4.6-3.156a37.324,37.324,0,0,0,.368-4.864" transform="translate(-45.651 -6.419)"/><path class="h" d="M131.265,17.731l-.989,3.962-1.951.265-.162-.445-1.171-3.205-1.2-3.291-1.2-1-.434-1.261-.5-1.444.912-1.082,2.429-2.876.494,1.984.594,2.4.11.434.027.1Z" transform="translate(-44.876 -2.669)"/><path class="i" d="M133.043,20.477l-.989,3.962L130.1,24.7l-.162-.445-.893-2.448-.278-.757a7.279,7.279,0,0,0,1.237-2.216,4.863,4.863,0,0,0-.713-2.425c-.033-.063-.057-.1-.057-.1s-.368.421-.634.371.544-.68.876-1.181a3.4,3.4,0,0,1,.491-.581l.027.1,1.231,2.2,1.593,2.85Z" transform="translate(-46.653 -5.415)"/><path class="j" d="M132.821,20.079l-1.593-2.85L130,15.025l-.027-.1a3.4,3.4,0,0,0-.491.581c-.332.5-1.138,1.128-.873,1.181s.631-.371.631-.371.023.036.057.1c.066-.073.125-.15.185-.229.461-.63.807-.113,1.065.754a4.281,4.281,0,0,1-.189,3.023,4.262,4.262,0,0,1-.956,1.509,3.8,3.8,0,0,0-.352.342l.893,2.448.162.445,1.951-.265.989-3.962Z" transform="translate(-46.654 -5.415)"/><path class="i" d="M128.084,12.63a1.24,1.24,0,0,1-.124.116c-1.324,1.1-1.291-.047-1.911,0a6.546,6.546,0,0,0-1.9.9l-.089-.272-.226-.647-.182-.524.912-1.082c.9-.654,1.825-1.31,1.825-1.31l.965.368.133.05.378,1.526Z" transform="translate(-44.876 -3.561)"/><path class="j" d="M127.971,11.967a4.871,4.871,0,0,1-.478.212,2.593,2.593,0,0,0-1.679.455c-.564.315-1.191.68-1.649.952l-.226-.647a4.45,4.45,0,0,0,.215-.544c0-.05,2.638-1.735,2.638-1.735s.352-.136.667-.269l.133.05Z" transform="translate(-44.98 -3.771)"/><path class="k" d="M129.379,25.878,127,19.381h.607s1.536,4.655,1.855,5.594a1.117,1.117,0,0,1-.086.9" transform="translate(-46.091 -7.034)"/><path class="l" d="M130.985,6.122,120.547,12.31a.549.549,0,0,1-.408.036.534.534,0,0,1-.322-.252l-.285-.441-.554-.852a.5.5,0,0,1-.093-.389.486.486,0,0,1,.213-.335l1.53-.906,5.713-3.387,2.615-1.546.584-.348a.552.552,0,0,1,.73.219L131.1,5.4a.482.482,0,0,1,.1.388.491.491,0,0,1-.216.335" transform="translate(-43.142 -1.389)"/><path class="m" d="M130.982,6.846l-8.724,5.173a.451.451,0,0,1-.341.026.445.445,0,0,1-.269-.209l-.239-.368c.64-.289,1.6-.78,1.381-1.016a3.468,3.468,0,0,1-.465-1.058L127.1,6.564a1.371,1.371,0,0,0,.412.126,1.089,1.089,0,0,1,.763.6L129.4,6.7a.619.619,0,0,0,.239-.886l-.352-.541.488-.289a.436.436,0,0,1,.341-.03.45.45,0,0,1,.269.212l.7,1.079a.4.4,0,0,1,.08.322.413.413,0,0,1-.179.282" transform="translate(-44.061 -1.789)"/><path class="n" d="M129.207,10.27l-1.593.945-1.45-2.233,1.6-.945Z" transform="translate(-45.787 -2.917)"/><path class="o" d="M127.627,10.674l.591.989a4.593,4.593,0,0,0-.086-.952c-.1-.382-.5-.036-.5-.036" transform="translate(-46.318 -3.822)"/><path class="h" d="M122.96,13.567a.473.473,0,0,1-.219-.136,2.538,2.538,0,0,1-.4-.57c-.614-1.105-.939-2.243-.179-2.774a.289.289,0,0,1,.08-.043.316.316,0,0,1,.345.017c.478.3.714,1.649.714,1.649.1,1.433-.069,1.911-.335,1.858" transform="translate(-44.172 -3.629)"/><path class="i" d="M123.257,13.567a7.1,7.1,0,0,0-.564-2.432,3.56,3.56,0,0,1-.159-1.091.316.316,0,0,1,.345.017c.478.3.714,1.649.714,1.649.1,1.433-.069,1.911-.335,1.858" transform="translate(-44.469 -3.629)"/><path class="k" d="M123.045,13.173a.642.642,0,0,1-.305.255,2.56,2.56,0,0,1-.405-.571c-.614-1.1-.939-2.243-.179-2.774a.333.333,0,0,1,.425-.027.8.8,0,0,1-.063.246v-.143s-.418.06-.445.7a7.348,7.348,0,0,0,.577,2.057.648.648,0,0,1,.3-.153c.219,0,.1.408.1.408" transform="translate(-44.172 -3.627)"/><path class="h" d="M124.1,12.517a1.1,1.1,0,0,1-.282-.322c-.036-.054-.069-.113-.106-.179-.661-1.172-1.291-3-.365-3.614a.46.46,0,0,1,.421-.09.532.532,0,0,1,.229.149l0,0a3.847,3.847,0,0,1,.6,1.635c.043,1.971-.155,2.635-.5,2.416" transform="translate(-44.597 -3.011)"/><path class="i" d="M124.61,12.527a6.153,6.153,0,0,0,0-2.273,8.11,8.11,0,0,1-.332-1.931.532.532,0,0,1,.229.149l0,0a3.847,3.847,0,0,1,.6,1.635c.043,1.971-.155,2.635-.5,2.416" transform="translate(-45.102 -3.021)"/><path class="k" d="M124.363,11.966c-.146.249-.408.149-.541.229-.036-.053-.069-.113-.106-.179-.66-1.171-1.291-3-.365-3.614a.459.459,0,0,1,.65.06l0,0s-.515-.149-.631.6a9.292,9.292,0,0,0,.332,2.415c.069.478.634-.026.634-.026a.408.408,0,0,1,.023.514" transform="translate(-44.597 -3.01)"/><path class="h" d="M127.141,5.614l-1.035.64-.448.279s-.013-.054-.04-.146a11.029,11.029,0,0,0-1.34-3.08c-.527-.667-.613-1.579-.239-1.712a.314.314,0,0,1,.166-.007,1.93,1.93,0,0,1,.935.747,17.425,17.425,0,0,1,1.911,2.92Z" transform="translate(-44.932 -0.574)"/><path class="i" d="M127.272,5.614l-1.035.64-.448.279s-.013-.054-.04-.146c.024-.05.047-.1.067-.153.275-.61.544-1.184.544-1.184a8.847,8.847,0,0,0-.876-1.995c-.249-.282-.913-1.012-1.314-1.46a.314.314,0,0,1,.166-.007,1.93,1.93,0,0,1,.935.747,16.474,16.474,0,0,1,1.484,2.147c.272.464.427.773.427.773Z" transform="translate(-45.063 -0.574)"/><path class="j" d="M128.171,7.267l-1.035.64-.448.279s-.013-.054-.04-.146c.024-.05.047-.1.067-.153.182-.116.567-.395.567-.723a2.753,2.753,0,0,1,.372-1.029c.272.464.427.773.427.773Z" transform="translate(-45.963 -2.227)"/><path class="k" d="M126.1,6.256l-.448.278a11.764,11.764,0,0,0-1.381-3.225c-.6-.753-.63-1.818-.073-1.719a.949.949,0,0,0-.133.561.947.947,0,0,0,.206.541A14.914,14.914,0,0,1,126.1,6.256" transform="translate(-44.931 -0.575)"/><path class="h" d="M125.782,10.637a1.049,1.049,0,0,1-.315-.355c-.03-.047-.06-.1-.093-.156-.66-1.172-1.291-3-.361-3.617a.485.485,0,0,1,.322-.1.425.425,0,0,1,.126.027c.587.229.8,1.782.8,1.782.043,1.931-.149,2.608-.481,2.422" transform="translate(-45.199 -2.325)"/><path class="i" d="M126.232,10.637a.94.94,0,0,1,.073-.156c.232-.375-.063-1.384-.113-2.2a5.227,5.227,0,0,0-.408-1.878.425.425,0,0,1,.126.027c.587.229.8,1.782.8,1.782.043,1.931-.149,2.608-.481,2.422" transform="translate(-45.649 -2.325)"/><path class="k" d="M125.466,10.28c-.03-.047-.06-.1-.093-.156-.66-1.171-1.291-3-.362-3.617a.443.443,0,0,1,.449-.076.724.724,0,0,0-.545.823,5.288,5.288,0,0,0,.422,2.313c.315.554.577-.122.68.342s-.3.508-.551.371" transform="translate(-45.199 -2.323)"/><path class="h" d="M130.361,9.965a4.96,4.96,0,0,0-.581,2.193,1.166,1.166,0,0,1-1.075-.946v0a1.75,1.75,0,0,1-.06-.319c-.143-1.274,1.208-1.337.226-1.841-1.354-.7-.985-2.648-.322-1.828,0,0,.007.006.007.01.043.054.08.1.119.143a.981.981,0,0,0,.587.4.763.763,0,0,1,.548.233c.438.431,1.109,1.052.551,1.961" transform="translate(-46.436 -2.549)"/><path class="i" d="M129.019,10.636a1.65,1.65,0,0,1-.315.574,1.7,1.7,0,0,1-.06-.319c-.1-.922.581-1.211.587-1.49,0-.083-.05-.16-.189-.256h0c-.053-.033-.11-.066-.169-.1-1.354-.7-.986-2.648-.322-1.828a1.459,1.459,0,0,0-.109.77c.08.511.919.852,1.264.932s-.425.966-.684,1.712" transform="translate(-46.436 -2.549)"/><path class="j" d="M130.264,10.313l-.412.282c0-.083-.05-.159-.189-.255Z" transform="translate(-47.057 -3.743)"/><path class="i" d="M129.655,7.971c-.043.013-.66.192-.617-.182.01-.08.02-.153.03-.216a.984.984,0,0,0,.587.4" transform="translate(-46.829 -2.748)"/><path class="p" d="M160.42,42.5a3.607,3.607,0,0,1-.5,0c-2.432-.192-10.15-2.472-11.968-5.206a2.967,2.967,0,0,1-.661-1.623.268.268,0,0,1,.007-.05c.116-.846,1.53-.65,2.313-.8,1.1-.213,1.052-.236.315-2.937a4.274,4.274,0,0,1,.2-3.271,3.084,3.084,0,0,1,.68-.829,4.267,4.267,0,0,1,1.775-.876c2.267-.577,6.235,3.073,6.235,3.073a2.776,2.776,0,0,1,1.1,2.369c0,.306,0,.575.013.8.05,1.032.326,1.337,1.828,1.344a3.309,3.309,0,0,1,3.421,3.481c.1,2.157-2.443,4.386-4.758,4.526" transform="translate(-53.452 -9.741)"/><path class="q" d="M150.242,32.029c.478,2.037.7,3.952.149,4.227s-.361.123-.385-.431.133-.01-1.291.183c-.445.06-.942.106-1.417.143.117-.846,1.53-.65,2.313-.8,1.105-.213,1.052-.236.315-2.937a4.271,4.271,0,0,1,.2-3.271,3.082,3.082,0,0,1,.68-.829l-.129.806s-.912.873-.434,2.91" transform="translate(-53.457 -10.275)"/><path class="r" d="M162.721,40.795a2.325,2.325,0,0,1-.7.5,6.9,6.9,0,0,0-1.6,1.2,3.61,3.61,0,0,1-.5,0A29.02,29.02,0,0,1,150,39.082a6.663,6.663,0,0,1-2.053-1.795,2.967,2.967,0,0,1-.661-1.623,2.452,2.452,0,0,1,2.1.043c1.483,1.052,2.565.926,1.908-.419s-1.3-4.894-.939-6.161a.371.371,0,0,0,0-.312.355.355,0,0,0-.233-.209c.017-.03.033-.063.053-.093a3.782,3.782,0,0,1,2.4-1.612,2.124,2.124,0,0,1,.5-.063,6.612,6.612,0,0,1,3.189,1.2,19.756,19.756,0,0,1,2.545,1.932,2.672,2.672,0,0,1,.783.915,2.637,2.637,0,0,1,.308,1.161,2.671,2.671,0,0,1,.013.292c0,.306,0,.574.013.807a.215.215,0,0,1-.013.02c-.736,1.172-.893,2.539,0,3.066s1.895-.4,3.159.561c1.056.807.714,2.91-.355,4" transform="translate(-53.452 -9.74)"/><path class="s" d="M164.268,41.449a2.325,2.325,0,0,1-.7.5,6.9,6.9,0,0,0-1.6,1.2,3.609,3.609,0,0,1-.5,0,29.02,29.02,0,0,1-9.915-3.412,2.226,2.226,0,0,1,.956-.836,2.237,2.237,0,0,0,1.105-3.573,3.82,3.82,0,0,1-1.105-3.693,5.274,5.274,0,0,1,5.309-2.937,19.978,19.978,0,0,1,2.545,1.932,2.672,2.672,0,0,1,.783.915,2.636,2.636,0,0,1,.308,1.161,2.252,2.252,0,0,1-.567,1.118c-.973,1.012-1.613,2.416-1.152,3.507s2.645.352,3.693,1.885a5.266,5.266,0,0,1,.843,2.233" transform="translate(-55 -10.394)"/><path class="s" d="M154.882,27.725l-.81.5a11.99,11.99,0,0,0-2.253.289,3.782,3.782,0,0,1,2.4-1.613,2.148,2.148,0,0,1,.5-.063c.09.449.159.886.159.886" transform="translate(-55.098 -9.74)"/><path class="t" d="M153.811,134.494l-2.943,1.012-1.812.621-.464.162-1.616-3.78-1.354-3.159-.969-2.269,7.576-1.367Z" transform="translate(-52.497 -45.624)"/><path class="u" d="M149.609,138.068l-.464.162-1.616-3.779-1.354-3.159c.551-.143.946-.229.946-.229Z" transform="translate(-53.049 -47.565)"/><path class="v" d="M153.815,134.494l-1.175.4-1.772.608a3.543,3.543,0,0,0-1.135-2.167,8.363,8.363,0,0,0-2.757-.83l-.319-.74-1.072-2.509-.932-2.179,3.8-.687,3.776-.68Z" transform="translate(-52.497 -45.624)"/><path class="w" d="M154.346,134.494l-1.175.4a4.947,4.947,0,0,0-1.384-2.266,17.021,17.021,0,0,0-4.6-.863l-1.072-2.509.743-2.153s.962-.332,2.123-.714l3.776-.68Z" transform="translate(-53.028 -45.624)"/><path class="c" d="M155.329,143.284l-6.017,2.167-3.55,1.277-2.989,1.079a5.186,5.186,0,0,1,2.495-3.136,6.873,6.873,0,0,0,1-.67,4.974,4.974,0,0,0,1.005-1.079,3.318,3.318,0,0,0,.637-1.632l5.22-1.8Z" transform="translate(-51.815 -50.625)"/><path class="f" d="M151.989,144.655c.136-.783.259-1.41-.159-1.739a2.2,2.2,0,0,0-1.994.006,3.3,3.3,0,0,0,.637-1.632l2.227-.766,3-1.029,2.2,3.789-6.016,2.167c.027-.279.073-.547.113-.8" transform="translate(-54.378 -50.625)"/><path class="b" d="M159.055,143.284l-6.017,2.167c.027-.278.074-.547.113-.8,1.521-.807,2.6-1.586,2.353-2.183a5.788,5.788,0,0,0-1.645-1.948l3-1.029Z" transform="translate(-55.54 -50.625)"/></g><g transform="translate(90.374 92.301)"><g class="x"><path class="l" d="M155.772,146.243l-7.091,2.552-5.2,1.872a.563.563,0,0,1-.733-.68l.007-.02,6.54-2.353v0l6.016-2.167Z" transform="translate(-142.17 -145.084)"/></g></g><g class="e"><path class="m" d="M159.167,146.243l-5.02,1.809-2.071.743a5.974,5.974,0,0,1,.613-1.181v0l1.387-.5,4.629-1.669Z" transform="translate(-55.191 -52.784)"/><path class="y" d="M160.305,146.243l-5.02,1.809a5,5,0,0,1-.071-.939l4.629-1.669Z" transform="translate(-56.329 -52.784)"/><path class="d" d="M145.933,148.512a5.893,5.893,0,0,0-.116.9.282.282,0,0,1-.2.273l-1.217.438a.309.309,0,0,1-.382-.431,3.453,3.453,0,0,1,1.456-1.5l.006,0a.306.306,0,0,1,.455.325" transform="translate(-52.251 -53.762)"/><path class="t" d="M178.344,98.76s-3.759,2.429-6.918,4.24a16.156,16.156,0,0,1-4.065,1.938c-1.473.033-7.973-5.472-7.973-5.472l8.71-4.944,2.1,1.264,6.633-2.1.736,2.472Z" transform="translate(-57.844 -33.999)"/><path class="v" d="M177.571,96.155c-2.183.242-4.738.84-4.738,2.326A12.415,12.415,0,0,1,171.425,103a16.156,16.156,0,0,1-4.065,1.937.921.921,0,0,1-.133-.01c-1.689-.252-7.841-5.462-7.841-5.462l8.71-4.944,2.1,1.265,6.633-2.1.325,1.091Z" transform="translate(-57.844 -33.999)"/><path class="w" d="M177.16,94.774a49.023,49.023,0,0,0-6.321,1.616c-.637.449-.889,4.128-1.974,5.917-.352.584-.962,1.563-1.636,2.622-1.689-.252-7.841-5.462-7.841-5.462l8.71-4.944,2.1,1.265,6.633-2.1Z" transform="translate(-57.844 -33.999)"/><path class="c" d="M194.315,102.83a5,5,0,0,1-2.9-2.515A4.807,4.807,0,0,0,188.9,97.81a2.22,2.22,0,0,0-.617-.159l-1.51-5.077,3.723-1.948,1.493,4.765Z" transform="translate(-67.783 -32.89)"/><path class="f" d="M191.989,95.391a7.135,7.135,0,0,0-2.379.654,1.542,1.542,0,0,0-.71,1.765,2.214,2.214,0,0,0-.617-.159l-.856-2.883-.654-2.193,3.723-1.948.461,1.473Z" transform="translate(-67.783 -32.89)"/><path class="b" d="M190.957,92.1a12.732,12.732,0,0,0-3.531,2.671l-.654-2.193,3.723-1.948Z" transform="translate(-67.783 -32.89)"/></g><g transform="translate(122.653 56.624)"><g class="z"><path class="l" d="M196.453,102.6a.036.036,0,0,1-.017-.006l-2.326-7.44h0l-1.49-4.765.783-.408,1.762,5.634,1.974,6.312a.536.536,0,0,1-.684.673" transform="translate(-192.557 -89.281)"/></g></g><g class="e"><path class="m" d="M195.162,95.619l-1.052-.461h0l-.82-2.622-.67-2.143.783-.408.707,2.263Z" transform="translate(-69.904 -32.657)"/><path class="y" d="M194.107,92.248c-.3.093-.578.2-.82.289l-.67-2.143.783-.408Z" transform="translate(-69.904 -32.657)"/><path class="c" d="M157.378,66.916s-.027,3.945-3.159,9.49-2.548,9.842-6.812,13.5-12.546,1.072-12.546,1.072-.02-.06-.056-.179a32.388,32.388,0,0,1-.956-4.124,69.553,69.553,0,0,1-.289-19.76A183.666,183.666,0,0,1,139.078,39s-.229-.315-.65-.846c-.365-.461-.879-1.082-1.51-1.8-.78-.886-1.742-1.921-2.846-2.973-.435-.415-.949-.9-1.5-1.417-2.857-2.674-6.782-6.261-6.782-6.261a13.315,13.315,0,0,0,2.13-1.928A10.984,10.984,0,0,0,130.04,20a22.587,22.587,0,0,0,.72-2.309s.116.249.322.677c.621,1.281,2.044,4.177,3.464,6.689a48.7,48.7,0,0,0,5.94,7.446c.518.551.846.886.846.886l.531.089.574.1.126.02,11.657,1.951-.747,6.484a47.1,47.1,0,0,0-1.938,11.039c-.368,6.348,5.843,13.85,5.843,13.85" transform="translate(-45.651 -6.419)"/><path class="d" d="M145.769,45.361s-5.6,15.834-5.355,19.278,1.214,4.277-.01,4.337-1.639,7.814-1.851,13.611a58.994,58.994,0,0,0,1.862,16.256c.378,1.161-.385,1.251-1.5.882a32.364,32.364,0,0,1-.956-4.124,69.548,69.548,0,0,1-.289-19.759,183.656,183.656,0,0,1,5.518-27.913l-.173-.229a10.947,10.947,0,0,0,1.971-3.232,11.94,11.94,0,0,0,.425-2.186l.03.03.531.089.574.1c-.279,1.238-.78,2.864-.78,2.864" transform="translate(-49.763 -15.345)"/><path class="f" d="M144.984,33.592,141.5,39s-.229-.315-.65-.846c1.195-1.44,2.064-2.369.378-4.005-2.051-1.994-2.445-5.5-3.232-5.13s-3.159,1.839-2.82,1.038,1.477-1.171,0-4.214c-.747-1.533-1.825-3.889-2.714-5.85a22.541,22.541,0,0,0,.72-2.309s1.891,4.022,3.786,7.367,6.786,8.332,6.786,8.332l.531.09Z" transform="translate(-48.072 -6.419)"/><path class="d" d="M132.571,31.97c-2.857-2.674-6.782-6.261-6.782-6.261a13.279,13.279,0,0,0,2.13-1.928A10.961,10.961,0,0,0,130.04,20a22.231,22.231,0,0,0,.72-2.309s.117.249.322.677c-.759,2.356-2.17,6.434-3,6.9-1.168.654,3.4,4.639,4.2,5.91a1.8,1.8,0,0,1,.289.8" transform="translate(-45.651 -6.419)"/><path class="f" d="M161.969,75.91s-.027,3.945-3.159,9.49S156.262,95.241,152,98.9s-12.546,1.072-12.546,1.072-.006-.024-.023-.07a31.28,31.28,0,0,1-.989-4.233c4.151.736,7.572,2.452,7.193-8.85-.176-5.236.488-8.5,1.251-10.419-2.887,2.727-7.134,6.745-4.486.9,3.053-6.73,7.469-8.731,5.349-7.562s-8.189,4.934-5.349,1.367,6.524-3.375,6.819-8.866,1.7-11.026-.69-12.5-3.288-6.152-3.288-6.152.451-.422,1.214-1.122l2.087.348,10.27,1.719-.747,6.484a47.1,47.1,0,0,0-1.938,11.039c-.368,6.348,5.843,13.85,5.843,13.85" transform="translate(-50.242 -15.413)"/><path class="d" d="M151.819,101.191l-.3.3a55.185,55.185,0,0,1-3.975-4.38,3.343,3.343,0,0,1-.229-.335c-1.643-2.727-2.393-11.218-2.19-13.488a6.838,6.838,0,0,1,.133-.813,25,25,0,0,1,.929-2.887c.537-1.467,1.091-2.983.852-3.624a.476.476,0,0,0-.039-.089,4.061,4.061,0,0,1-.448-1.55,13.9,13.9,0,0,1-.037-2.349,52.246,52.246,0,0,1,.707-5.657c.663-3.935,2.452-10.539,3.471-14.162.431-1.539.726-2.541.733-2.574l.4.119c-.006.037-.319,1.092-.773,2.7-1.019,3.64-2.768,10.114-3.418,13.98-.355,2.12-.584,3.852-.68,5.239a15.316,15.316,0,0,0-.006,2.495,4,4,0,0,0,.368,1.46.494.494,0,0,0,.043.083c.435.747-.129,2.286-.784,4.072-.292.8-.594,1.619-.8,2.365a7.7,7.7,0,0,0-.239,1.224c-.185,2.091.5,10.031,1.958,12.921a3.253,3.253,0,0,0,.372.6,53.631,53.631,0,0,0,3.938,4.34" transform="translate(-52.658 -17.995)"/><path class="aa" d="M147.75,86.677c-.136.073-.272.143-.4.206a13.841,13.841,0,0,1-.036-2.35c.149-.122.3-.239.444-.352a15.323,15.323,0,0,0-.006,2.5" transform="translate(-53.45 -30.551)"/><path class="aa" d="M146.681,94.545c-.292.8-.594,1.619-.8,2.366-.182.143-.362.268-.527.375a25.007,25.007,0,0,1,.929-2.887c.538-1.467,1.092-2.983.853-3.624.1-.133.189-.262.282-.385a.492.492,0,0,0,.043.083c.434.747-.129,2.287-.783,4.072" transform="translate(-52.752 -32.804)"/><path class="aa" d="M154.133,52.325c-.086-.053-.166-.106-.245-.166.431-1.54.726-2.542.733-2.575l.4.119c-.006.037-.319,1.092-.773,2.7a1.218,1.218,0,0,0-.119-.083" transform="translate(-55.848 -17.995)"/><path class="b" d="M162.532,76.108s-.027,3.945-3.159,9.49-2.548,9.842-6.812,13.5-12.546,1.072-12.546,1.072-.006-.024-.023-.07c5.08.893,11.51-2.014,11.338-5.372-.206-4.025,2.233-6.434,3.454-11.673s.487-7.552-.963-7.575-6.231,9.387-4.042,1.5a18.83,18.83,0,0,1,2.529-6.106c-2.018,1.2-5.02,2.837-2.22.047,3.972-3.955,3.554-4.662,3.554-4.662l-5,1.845,4.081-3.195a33.57,33.57,0,0,0,1.672-7.284c.7-4.944-1.022-7.047-3.261-7.26s-3.594-4.061-3.594-4.061l1.56-3.285,10.27,1.719-.747,6.484a47.1,47.1,0,0,0-1.938,11.039c-.368,6.348,5.843,13.85,5.843,13.85" transform="translate(-50.805 -15.611)"/><path class="aa" d="M153.085,127.773l-.3.3a55.178,55.178,0,0,1-3.975-4.38,3.339,3.339,0,0,1-.229-.335c.066-.162.129-.338.189-.531a3.253,3.253,0,0,0,.372.6,53.635,53.635,0,0,0,3.938,4.34" transform="translate(-53.924 -44.577)"/><path class="ab" d="M162.41,44.807a17.028,17.028,0,0,1-6.646,4.367,4.814,4.814,0,0,1-5.926-1.931,11.528,11.528,0,0,1-1.208-2.12,1.788,1.788,0,0,1-.01-1.908,3.161,3.161,0,0,0,.219.647,9.219,9.219,0,0,0,2.365,3.357,4.615,4.615,0,0,0,4.772.691,17.426,17.426,0,0,0,5.687-3.418Z" transform="translate(-53.842 -15.683)"/><path class="ac" d="M163.252,45.534a15.473,15.473,0,0,1-2.542,2.207,16.84,16.84,0,0,1-4.1,2.16,4.814,4.814,0,0,1-5.926-1.931,6.488,6.488,0,0,1,1.367-.024,4.615,4.615,0,0,0,4.772.691,16.586,16.586,0,0,0,3.507-1.752,17.99,17.99,0,0,0,2.18-1.666Z" transform="translate(-54.684 -16.411)"/><path class="ad" d="M168.747,45.534a15.475,15.475,0,0,1-2.542,2.207,1.266,1.266,0,0,0-.385-.856A17.994,17.994,0,0,0,168,45.219Z" transform="translate(-60.179 -16.411)"/><path class="g" d="M161.812,44.045a17.437,17.437,0,0,1-5.687,3.418,4.615,4.615,0,0,1-4.772-.691,9.208,9.208,0,0,1-2.366-3.358c0-.01-.007-.017-.01-.026a2.917,2.917,0,0,1-.209-.621,1.631,1.631,0,0,1,.9-.564l2.306-.152.989-.066,1.055.053,3.438.166Z" transform="translate(-53.99 -15.237)"/><path class="ae" d="M154.021,42.038a8.641,8.641,0,0,1-3.481.73,2.182,2.182,0,0,0-1.563.621,2.917,2.917,0,0,1-.209-.621,1.631,1.631,0,0,1,.9-.564l2.306-.152.989-.066Z" transform="translate(-53.99 -15.237)"/><path class="af" d="M163.284,44.045a18.285,18.285,0,0,1-2.18,1.666,16.585,16.585,0,0,1-3.507,1.752,4.615,4.615,0,0,1-4.772-.691,4.1,4.1,0,0,0,4.626-.846c1.758-1.842.481-1.566.481-1.566a7.638,7.638,0,0,1-2.505-.368,5.244,5.244,0,0,1-1.978-1.941l.515-.037.475-.029,4.493.219Z" transform="translate(-55.463 -15.237)"/><path class="ag" d="M163.933,44.045a18.287,18.287,0,0,1-2.18,1.666,6.884,6.884,0,0,0-1.068-1.351c-1.291-1.235-2.383-.577-4.048-.813a2.949,2.949,0,0,1-2.024-1.533l.475-.029,4.493.219Z" transform="translate(-56.111 -15.237)"/><path class="h" d="M160.374,35.933l-.04.312-.119.922-.366,2.841-1.977.766-.392.153a1.321,1.321,0,0,1-.816.046,1.307,1.307,0,0,1-.686-.438l-.1-.126-.517-.621.069-1.426.011-.2.023-.468.046-1.012,3.989-.614Z" transform="translate(-56.382 -13.041)"/><path class="k" d="M155.97,39.741l-.1,1.938-.518-.621.08-1.626Z" transform="translate(-56.381 -14.311)"/><path class="i" d="M160.413,35.933l-.04.312-.119.922-.366,2.841-.471.182-1.506.584c.115-.524.815-2.3.815-2.3a3.478,3.478,0,0,1-2.339.481,5.139,5.139,0,0,1-.922-.594l.011-.2.016-.352.053-1.128Z" transform="translate(-56.421 -13.041)"/><path class="j" d="M160.428,35.933l-.04.312-.119.922-.366,2.841-.471.182.162-1.333a.683.683,0,0,0-.046-.355.71.71,0,0,0-.222-.285.69.69,0,0,0-.687-.092,4.653,4.653,0,0,1-1.364.348,2.166,2.166,0,0,1-1.769-.66l.053-1.128Z" transform="translate(-56.436 -13.041)"/><path class="h" d="M161.191,32.253a1.372,1.372,0,0,1-.455.561,1.336,1.336,0,0,1-.674.262c-.136.006-.282-.07-.408-.063-.215.013-.385.229-.581.365a6.057,6.057,0,0,1-1.742.9,3.6,3.6,0,0,1-.694.133s0,0-.01,0c-.11.01-.226.013-.339.013s-.228,0-.345-.013a3,3,0,0,1-2.678-1.881,5.141,5.141,0,0,1-.219-1.616,19.481,19.481,0,0,1,.2-2.771,2.689,2.689,0,0,1,.137-.627.771.771,0,0,1,.043-.1.964.964,0,0,1,.331-.389,1.108,1.108,0,0,1,.426-.169,7.434,7.434,0,0,1,3.984.156c1.63.786,1.948,3.892,1.948,3.892s1.978-.289,1.075,1.337" transform="translate(-55.543 -9.68)"/><path class="i" d="M164.71,34.362a.8.8,0,0,1-.222.554.944.944,0,0,1-.249.222,1.336,1.336,0,0,1-.736.2c-.206-.01-.338-.08-.278-.209,0,0,.315-.922.945-.975.345-.03.518.05.541.209" transform="translate(-59.231 -12.393)"/><path class="j" d="M164.222,35a.658.658,0,0,1,.017.143c-.039.023-.083.047-.126.066-.116-.083-.3-.278-.442-.239-.106.033-.139.2-.169.371-.206-.01-.338-.08-.279-.209,0,0,.315-.922.946-.975.345-.03.517.05.541.209a1.462,1.462,0,0,0-.747.169c-.345.2.162-.146.259.464" transform="translate(-59.231 -12.393)"/><path class="i" d="M160.308,30.921s-.607.6-.58,0-.594-3.255-2.894-3.63a6.588,6.588,0,0,0-3.259.236.884.884,0,0,1,.043-.1.947.947,0,0,1,.332-.389,1.106,1.106,0,0,1,.424-.169,9.36,9.36,0,0,1,3.206-.093h0a3.061,3.061,0,0,1,.777.249,3.914,3.914,0,0,1,1.669,2.528s0,0,0,0a9.16,9.16,0,0,1,.275,1.364" transform="translate(-55.735 -9.684)"/><path class="j" d="M162.313,29.611a3.543,3.543,0,0,1-.677-1.029,4.339,4.339,0,0,0-1.769-1.748,3.08,3.08,0,0,1,.776.248,3.917,3.917,0,0,1,1.67,2.529" transform="translate(-58.018 -9.738)"/><path class="k" d="M156.068,34.615c-.036,0-.08,0-.123.01a3,3,0,0,1-2.678-1.882,5.137,5.137,0,0,1-.219-1.616,19.386,19.386,0,0,1,.2-2.771,2.286,2.286,0,0,1,.179-.723.946.946,0,0,1,.332-.389,20.509,20.509,0,0,0-.285,4.526,2.983,2.983,0,0,0,2.595,2.844" transform="translate(-55.543 -9.888)"/><path class="b" d="M159.852,29.921a.286.286,0,0,1,.215.2.836.836,0,0,1,.05.415.794.794,0,0,1-.139.395.278.278,0,0,1-.253.143c-.093-.01-.162-.073-.215-.192a.806.806,0,0,1-.054-.418.855.855,0,0,1,.143-.395.28.28,0,0,1,.253-.143" transform="translate(-57.867 -10.858)"/><path class="b" d="M155.229,29.593c.093.01.162.073.215.192a.806.806,0,0,1,.054.418.849.849,0,0,1-.143.395.274.274,0,0,1-.253.143.287.287,0,0,1-.215-.192.841.841,0,0,1-.05-.418.794.794,0,0,1,.14-.395.277.277,0,0,1,.253-.143" transform="translate(-56.19 -10.739)"/><path class="s" d="M160.923,29.578a.1.1,0,0,1-.1-.09,1.419,1.419,0,0,0-.594-1.072,1.067,1.067,0,0,0-.822-.106.092.092,0,0,1-.13-.069.094.094,0,0,1,.067-.133,1.251,1.251,0,0,1,.992.129,1.609,1.609,0,0,1,.7,1.217.093.093,0,0,1-.087.12.043.043,0,0,1-.02,0" transform="translate(-57.8 -10.183)"/><path class="s" d="M154.212,28.8a.1.1,0,0,1-.086-.043.1.1,0,0,1-.013-.1,1.411,1.411,0,0,1,1.818-.859.1.1,0,0,1,.063.136.091.091,0,0,1-.133.063,1.186,1.186,0,0,0-1.55.73.1.1,0,0,1-.1.069" transform="translate(-55.927 -10.063)"/><path class="i" d="M156.8,30.823l-.08,1.8-.023.451-.289-.093a.656.656,0,0,1-.328-.232.634.634,0,0,1-.136-.382.662.662,0,0,1,.017-.18.629.629,0,0,1,.09-.212l.747-1.142s0,0,0-.006" transform="translate(-56.594 -11.186)"/><path class="k" d="M156.808,30.834a7.42,7.42,0,0,1-.61,1.228.292.292,0,0,1-.226.126.622.622,0,0,1,.089-.212Z" transform="translate(-56.605 -11.19)"/><path class="j" d="M156.722,33.477l-.023.451-.289-.093a.656.656,0,0,1-.328-.232.634.634,0,0,1-.136-.382c.106-.06.259-.047.425.136a.327.327,0,0,0,.352.119" transform="translate(-56.595 -12.045)"/><path class="o" d="M159.624,34.75a5.071,5.071,0,0,1-.233.73,1.721,1.721,0,0,1-.448.69c-.235.179-.643.036-.969-.129a4.665,4.665,0,0,1-.487-.3Z" transform="translate(-57.155 -12.611)"/><path class="n" d="M159.624,34.75a5.071,5.071,0,0,1-.233.73c-.053.01-.109.017-.166.023a2,2,0,0,0-1.251.538,4.665,4.665,0,0,1-.487-.3Z" transform="translate(-57.155 -12.611)"/><path class="h" d="M168.915,82.216s-.777.942-1.56,1.9c-.631.773-1.264,1.566-1.5,1.888a1.3,1.3,0,0,1-1.068.574,2.637,2.637,0,0,1-.431-.006c-.113-.01-.216-.024-.309-.033a1.21,1.21,0,0,0-.365.043c-.212.047-.454.126-.684.192-.4.117-.74.186-.74-.04a4.147,4.147,0,0,1,.621-1.4c-.03.03-.15.159-.621.667-.61.654-1.3.816-.949-.236.017-.047.033-.093.054-.143a16.707,16.707,0,0,1,2.75-3.5l.007-.006a3.627,3.627,0,0,0-1.623-.388c-.829,0-1.543-1.1-.863-1.145a.889.889,0,0,1,.282.026c1.119.243,1.265-.1,1.945-.245a3.458,3.458,0,0,1,1.8.524l.036-.047,1.172-1.45.159.219Z" transform="translate(-58.506 -28.814)"/><path class="i" d="M171.472,82.216s-.425.514-.962,1.172l-.6.733-1.656-3.275.365-.448.81-1,.156.219Z" transform="translate(-61.063 -28.814)"/><path class="j" d="M171.68,82.216s-.425.514-.962,1.172L168.83,80.4l.81-1,.156.219Z" transform="translate(-61.271 -28.814)"/><path class="i" d="M163.825,87.635l.962-1.082a.489.489,0,0,0,.123-.312.467.467,0,0,0-.11-.315l-.169-.213a9.928,9.928,0,0,1-.807,1.921" transform="translate(-59.455 -31.107)"/><path class="k" d="M164.166,83.683c-.126.156-2.16,2.658-2.588,3.4a.656.656,0,0,1-.216.249c.017-.047.033-.093.053-.143a16.7,16.7,0,0,1,2.751-3.5" transform="translate(-58.561 -30.37)"/><path class="k" d="M167.271,79.615,165.907,81.3s-.912-.866-1.6-.67-1.716-.04-1.832.275-.5.063-.6-.322a.9.9,0,0,1,.282.027c1.118.242,1.264-.1,1.944-.246a3.47,3.47,0,0,1,1.808.524l1.208-1.5Z" transform="translate(-58.746 -28.814)"/><path class="i" d="M164.7,89.5c-.212.047-.455.126-.684.192.046-.05,1.59-1.656,2.067-2.2A17.647,17.647,0,0,1,164.7,89.5" transform="translate(-59.523 -31.726)"/><path class="i" d="M167.7,88.027l-1.122,1.689a2.711,2.711,0,0,1-.431-.006Z" transform="translate(-60.296 -31.946)"/><path class="k" d="M161.81,89.2l.418.355s-.816.77-.418-.355" transform="translate(-58.684 -32.374)"/><path class="k" d="M163.792,90.328l-.338-.166s-.239.849.338.166" transform="translate(-59.302 -32.721)"/><path class="c" d="M177.956,60.2l-5.913,12.47-1.765-2.144-3.259-3.961-.819-1,5.459-4.748a1.651,1.651,0,0,0,.185-.186,1.806,1.806,0,0,0,.113-2.206l-3.982-5.708s-1.931-4.645.7-6.838c.066-.06.14-.113.212-.169l8.485,11.574.355.484a2.377,2.377,0,0,1,.233,2.429" transform="translate(-60.317 -16.59)"/><path class="f" d="M173.82,60.381a10.508,10.508,0,0,1-1.354.352,1.763,1.763,0,0,0,.428-1.022,1.729,1.729,0,0,0-.315-1.184l-.753-1.079L168.6,52.818s-1.931-4.645.7-6.838a25.811,25.811,0,0,1-.535,2.894c-.385,1.566-.03.8,1.165-.034s-.365,2.625-.6,3.256,3.593,5.213,4.99,5.919,1.049,1.828-.494,2.366" transform="translate(-60.939 -16.687)"/><path class="b" d="M175.123,66.243a1.726,1.726,0,0,0-.316-1.184l-.752-1.079c.991.64,2.1,1.37,2.743,1.845Z" transform="translate(-63.167 -23.219)"/><path class="f" d="M180.109,66.5l-5.226,11.029-1.563-1.9c1.45-1.832,5.9-7.572,5.86-9.194a8.813,8.813,0,0,1,.412-2.512l.315.428a2.1,2.1,0,0,1,.2,2.147" transform="translate(-62.901 -23.198)"/><path class="d" d="M173.9,68.181c-.335.889-3.932,4.592-5.3,5.983l-.717-.87,4.765-4.141a1.42,1.42,0,0,0,.159-.162,1.5,1.5,0,0,0,.378-1c.515-.129.826-.11.714.192" transform="translate(-60.927 -24.647)"/><path class="c" d="M86.459,23.862l-7.316,4a4.891,4.891,0,0,1-3.256-1.838,2.514,2.514,0,0,1-.156-.272c-.949-1.839-.106-5.313,1.723-6.942a5.573,5.573,0,0,1,7.107-.528c.073.05.146.106.215.159,2.575,2,1.683,5.418,1.683,5.418" transform="translate(-27.341 -6.255)"/><path class="d" d="M76.88,24.658a4.352,4.352,0,0,1,.216-2.051,4.409,4.409,0,0,1,1.124-1.728c1.739-1.616-2.445-.013-1.34,3.779" transform="translate(-27.832 -7.35)"/><path class="f" d="M86.772,24.142l-7.316,4a5.43,5.43,0,0,1-2.409-.949,3.488,3.488,0,0,1-.846-.889c.494-.12.76-.461.359-1.105-.743-1.2.126-4.755.352-3.139s.816,3.239.789,1.45a4.628,4.628,0,0,1,1.759-4c1.363-1.321,3.633-.524,3.043-.786s-2.88-.79-.1-.707a3.9,3.9,0,0,1,2.714,1.029c-.08-.146-.162-.308-.242-.481.073.05.146.106.215.159a4.4,4.4,0,0,1,1.016,1.1,5.929,5.929,0,0,1,.667,4.323" transform="translate(-27.654 -6.535)"/><path class="d" d="M82.992,18.527a5.048,5.048,0,0,1,3.663.355c1.914.936-1.941-2.021-3.663-.355" transform="translate(-30.119 -6.535)"/><path class="b" d="M87.254,24.75l-7.316,4a5.43,5.43,0,0,1-2.409-.949c.362-.747,1.321-.889,1.254-1.254a1.318,1.318,0,0,1,1.158-1.642c1.154-.262,2-2.157,2.475-3.893s1.211-1.629,2.1-.5,2.007,2.339,2.067,1.265c.026-.432.023-.922.006-1.354a5.929,5.929,0,0,1,.667,4.323" transform="translate(-28.136 -7.144)"/><path class="g" d="M116.935,22.52a6.8,6.8,0,0,1-3.693.348c-1.59-.475-4.672-6.156-4.672-6.156s.577-.209,2.8.369a6.025,6.025,0,0,1,2.293,1.536,26.054,26.054,0,0,1,2.538,2.9c.451.594.733,1,.733,1" transform="translate(-39.402 -6.052)"/><path class="af" d="M116.935,22.52a6.8,6.8,0,0,1-3.693.348c-1.59-.475-4.672-6.156-4.672-6.156s.577-.209,2.8.369a6.025,6.025,0,0,1,2.293,1.536c-.007.982.136,2.5,1.022,2.887a1.6,1.6,0,0,0,1.516.013c.451.594.733,1,.733,1" transform="translate(-39.402 -6.052)"/><path class="h" d="M113.745,8.294l-.5,1.082-.153.338v7.107l-1.165.853-2.6-3.149.076-1.188.14-2.23.179-2.814-.66-3.185L108.7,3.323l4.725,2.13.152,1.35Z" transform="translate(-39.447 -1.206)"/><path class="k" d="M110.345,13.585a4.564,4.564,0,0,1-.541,2.585l.14-2.23.179-2.813s.249.033.222,2.459" transform="translate(-39.85 -4.038)"/><path class="i" d="M113.607,12.4l-.153.341v7.108l-1.165.852-2.6-3.148.162-2.559.053-.859c1.291.986,2.33,3.252,2.273,2.084-.063-1.3-.2-4.559-.2-4.559Z" transform="translate(-39.806 -4.231)"/><path class="j" d="M114.983,13.154v.879L113.9,12.8Z" transform="translate(-41.335 -4.646)"/><path class="j" d="M113.454,20.229v1.516l-1.165.853-2.605-3.149.163-2.559a10.105,10.105,0,0,1,1.8,2.087,2.281,2.281,0,0,0,1.809,1.251" transform="translate(-39.806 -6.13)"/><path class="i" d="M113.573,6.8c-.2-.023-.319.006-.285.146.116.488-.673,1.344-.936.966a1.982,1.982,0,0,0-1.765-.5c-.657.126-.644-.91-.644-.91s-.236-.378-.58-.919c-.093-.15-.2-.312-.3-.481l-.249-1.2-.119-.584.617.279L112.627,5.1l.793.358Z" transform="translate(-39.447 -1.206)"/><path class="j" d="M113.163,6.316l-1.085-.126a.574.574,0,0,1-.126.206.561.561,0,0,1-.2.136.6.6,0,0,1-.239.039.566.566,0,0,1-.232-.066c-.617-.239-.7-1.158-.727-.664a.492.492,0,0,1-.173.348.485.485,0,0,1-.368.126l-.58-.568c-.093-.149-.2-.312-.3-.481l-.249-1.2.5-.305,3.315,1.493Z" transform="translate(-39.515 -1.365)"/><path class="h" d="M116.5,5.606a2.775,2.775,0,0,1-.053.441c-.143.753-.544.852-1.307-1.065,0,0-.591-2.1.325-1.955a.484.484,0,0,1,.08.017c.846.2,1.029,1.337.956,2.562" transform="translate(-41.716 -1.096)"/><path class="i" d="M116.833,5.62a2.775,2.775,0,0,1-.053.441,1.6,1.6,0,0,1-.292.169c-.278.113-.368-.308-.368-.308l.362-.129a3.993,3.993,0,0,0-.133-1.2,6.923,6.923,0,0,0-.471-1.533c.846.2,1.029,1.337.956,2.562" transform="translate(-42.054 -1.11)"/><path class="h" d="M114.817,5.439v.017c-.076,1.172-.547,1.052-1.629-1.34,0,0-.7-2.2.371-2.081a.077.077,0,0,1,.027,0c1.1.159,1.321,2.061,1.231,3.4" transform="translate(-40.997 -0.737)"/><path class="i" d="M115.172,4.861c0,.2,0,.395-.017.58-.162.183-.329.292-.468.233-.415-.182-.292-.458-.292-.458h.289a6.6,6.6,0,0,0-.235-1.742,3.585,3.585,0,0,0-.551-1.437.077.077,0,0,1,.027,0,.945.945,0,0,1,.541.269,3.826,3.826,0,0,1,.707,2.552" transform="translate(-41.335 -0.739)"/><path class="j" d="M115.5,5.016a2.46,2.46,0,0,1-.189-.753,6.531,6.531,0,0,0-.517-1.8,3.826,3.826,0,0,1,.707,2.552" transform="translate(-41.659 -0.894)"/><path class="h" d="M112.5,4.464c0,.057-.006.113-.013.162v0c-.1.859-.471.8-1.241-.726-.116-.226-.242-.485-.375-.78,0,0-.527-1.669.039-2.021a.5.5,0,0,1,.359-.057.585.585,0,0,1,.1.02c1.016.262,1.218,2.1,1.128,3.4" transform="translate(-40.158 -0.375)"/><path class="k" d="M111.25,3.942c-.116-.226-.242-.484-.375-.78,0,0-.528-1.669.04-2.021.069.441.245,1.583.322,2.565a2.169,2.169,0,0,1,.013.236" transform="translate(-40.157 -0.414)"/><path class="i" d="M112.917,4.482c0,.057-.006.113-.013.162v0a.4.4,0,0,1-.365.063c-.2-.11-.285-.517-.285-.517l.405-.11s-.054-.285-.319-1.573a4.178,4.178,0,0,0-.551-1.426,1.056,1.056,0,0,1,.617.457,4.2,4.2,0,0,1,.527,2.144c.006.275,0,.547-.017.8" transform="translate(-40.57 -0.393)"/><path class="j" d="M113.285,3.946c-.05-.01-.1-.126-.143-.448a13.546,13.546,0,0,0-.385-1.7,4.2,4.2,0,0,1,.528,2.144" transform="translate(-40.922 -0.654)"/></g><g transform="translate(68.289 0.001)"><g class="ah"><path class="h" d="M110.192,3.474a2.456,2.456,0,0,1-.043.352c-.122.617-.461.511-1.095-.684l-.007-.01c-.143-.276-.305-.608-.481-1,0,0-.5-1.573-.01-1.988a.467.467,0,0,1,.405-.09.95.95,0,0,1,.348.12c.8.475.962,2.114.882,3.3" transform="translate(-107.608 -0.016)"/></g></g><g transform="translate(68.289)"><g class="ai"><path class="k" d="M109.047,3.187c-.143-.272-.305-.6-.481-1,0,0-.5-1.573-.01-1.988a11.516,11.516,0,0,0,.491,2.983" transform="translate(-107.608 -0.074)"/></g></g><g transform="translate(69.988)"><g class="ai"><path class="i" d="M110.744,3.549a2.456,2.456,0,0,1-.043.352c-.514.368-.687-.637-.687-.637l.524-.033s-.133-1.128-.315-2.024a3.343,3.343,0,0,0-.361-.956c.8.475.962,2.114.882,3.3" transform="translate(-109.859 -0.091)"/></g></g><g class="e"><path class="h" d="M109.817,6.445a2.31,2.31,0,0,1-.6,1.526A3.787,3.787,0,0,0,107.963,6a1.217,1.217,0,0,1-.485-1.746,2.615,2.615,0,0,1,.428-.667,2.3,2.3,0,0,0,.278-.776.072.072,0,0,0,.007-.024.579.579,0,0,1,.069-.176c.362-.647,1.5.617.644,1.742-.67.879.382.252.8,1.463a1.932,1.932,0,0,1,.113.631" transform="translate(-38.94 -0.883)"/><path class="k" d="M108.757,3.3a1.121,1.121,0,0,1-.222.627l-.282-.143a2.392,2.392,0,0,0,.282-.776c0-.01,0-.017,0-.024a.5.5,0,0,1,.219.315" transform="translate(-39.286 -1.083)"/><path class="i" d="M110.084,6.442c-.395.123-.807-.119-1.049-.627a1.872,1.872,0,0,0-1-.853,8.8,8.8,0,0,0,.714-1.347,1.006,1.006,0,0,0-.219-1.009.32.32,0,0,1,.518-.083,1.286,1.286,0,0,1,.308.4,1.246,1.246,0,0,1,.129.488,1.214,1.214,0,0,1-.063.5,1.255,1.255,0,0,1-.248.438c-.162.215-.222.338-.216.424.02.259.7.123,1.016,1.038a1.932,1.932,0,0,1,.113.631" transform="translate(-39.207 -0.88)"/><path class="j" d="M109.412,4.4c-.162.216-.222.338-.216.421h-.5a3.3,3.3,0,0,0,.71-1.154,1.341,1.341,0,0,0-.12-1.092,1.284,1.284,0,0,1,.308.4,1.319,1.319,0,0,1,.067.989,1.258,1.258,0,0,1-.249.438" transform="translate(-39.447 -0.936)"/><path class="c" d="M109.473,115.191l-6.321-2.667L97.179,110l2.4-3.666.561.229,4.559,1.848s-.053,1.944,2.449,3.521a5.173,5.173,0,0,1,1.49,1.4,5.237,5.237,0,0,1,.836,1.865" transform="translate(-35.268 -38.588)"/><path class="f" d="M110.964,115.322l-2.95-1.244-3.371-1.423c.08-.276.153-.528.206-.737.292-1.1-.133-2.837-1.079-2.92s-2.482-1.653-2.482-1.653l.342-.657,1.832.74,2.727,1.109a3.222,3.222,0,0,0,.5,1.59,5.177,5.177,0,0,0,1.374,1.53,6.859,6.859,0,0,0,.574.4,5.173,5.173,0,0,1,1.49,1.4,5.236,5.236,0,0,1,.836,1.865" transform="translate(-36.759 -38.719)"/><path class="b" d="M107.931,110.547a3.978,3.978,0,0,1-2.92-2.1,3.16,3.16,0,0,1-.305-.6l2.724,1.108a3.213,3.213,0,0,0,.5,1.59" transform="translate(-37.999 -39.14)"/><path class="b" d="M111.841,116.907a10.041,10.041,0,0,0,.053-2.422,6.967,6.967,0,0,0,.574.4,5.173,5.173,0,0,1,1.49,1.4,5.226,5.226,0,0,1,.836,1.865Z" transform="translate(-40.589 -41.548)"/><path class="l" d="M109.322,118.326l-3.491-1.477-3.468-1.467-5.976-2.525.5-.773,5.973,2.529,3.371,1.423,2.95,1.244a4.427,4.427,0,0,1,.136,1.045" transform="translate(-34.981 -40.677)"/><path class="m" d="M112.726,119.766l-3.491-1.477-3.468-1.467.5-.77,3.371,1.423,2.95,1.244a4.427,4.427,0,0,1,.136,1.045" transform="translate(-38.385 -42.117)"/><path class="y" d="M114.7,120.577l-3.491-1.477.4-.813h0l2.95,1.244a4.427,4.427,0,0,1,.136,1.045" transform="translate(-40.36 -42.928)"/><path class="t" d="M110.084,82.954l-6.212,13.329-2.492-1.055L99.2,94.306l-.63-.269,2.621-6.617.365-.915L102,85.366l.21-.524-2.887-3-4.93-5.13,4.383-4.254c.143.312.229.484.229.484s1.739-.427,3.789,1.623a3.317,3.317,0,0,0,2.124,1.056l.912.912,3.653,3.65.136.136a2.336,2.336,0,0,1,.464,2.634" transform="translate(-34.257 -26.297)"/><path class="v" d="M112.893,85.276,106.681,98.6l-.571-.242-1.921-.813c1.31-2.844,2.78-6.268,2.385-6.54-.684-.475-2.392-1.735-.965-1.672s3.779-1.327,1.885-1.191a12.992,12.992,0,0,0-3.133.68l.113-.292.335-.847.21-.524-2.887-3,3.269-3.617,1.174-1.294,2.064-.4.816.816,2.837,2.834.136.136a2.336,2.336,0,0,1,.464,2.634" transform="translate(-37.065 -28.618)"/><path class="w" d="M112.893,85.74l-6.212,13.329-.571-.242a22.1,22.1,0,0,1,2.488-5.263c1.739-2.25,2.369-6.9.79-6.407-1.038.325-3.414,1.247-4.911,1.842l.331-.847.21-.524-2.887-3,3.269-3.617a9.627,9.627,0,0,1,2.223-.789c.338-.037,1.016-.067,1.832-.087l2.837,2.834.136.136a2.28,2.28,0,0,1,.647,1.244,2.256,2.256,0,0,1-.182,1.39" transform="translate(-37.065 -29.083)"/><path class="u" d="M104.509,96.238l-2.933,6.59-.631-.269,2.622-6.617Z" transform="translate(-36.634 -34.819)"/><path class="c" d="M83.946,130.614l-2.5-2.23-2.343-2.09-3.932-3.514-1.184-1.058,2.85-2.223.4-.305v0l.209-.162,4.174,3.62s-.68,1.825,1.178,4.124a5.082,5.082,0,0,1,.956,1.8,5.152,5.152,0,0,1,.189,2.037" transform="translate(-26.853 -43.197)"/><path class="f" d="M85.57,130.614l-2.5-2.23-2.343-2.09c.279-1.872.405-3.75-.126-3.979a6.988,6.988,0,0,1-1.971-2.515c-.06-.1-.113-.2-.169-.3l.4-.308.209-.162,4.174,3.62s-.68,1.825,1.178,4.124a5.082,5.082,0,0,1,.956,1.8,5.151,5.151,0,0,1,.189,2.037" transform="translate(-28.477 -43.197)"/><path class="b" d="M85.8,130.614l-2.5-2.23a8.321,8.321,0,0,0-.026-1.7,10.03,10.03,0,0,0-3.066-5.84,4.66,4.66,0,0,1-1.118-1.656l.209-.162,4.174,3.62s-.68,1.825,1.178,4.124a5.082,5.082,0,0,1,.956,1.8,5.152,5.152,0,0,1,.189,2.037" transform="translate(-28.703 -43.197)"/><path class="l" d="M83.532,132.148a4.554,4.554,0,0,1-.206,1.032l-2.631-2.35-2.568-2.3L75.2,125.927l-2.353-2.1.727-.567,1.184,1.055,3.932,3.517,2.343,2.09Z" transform="translate(-26.439 -44.732)"/><path class="m" d="M86.538,134.753a4.554,4.554,0,0,1-.206,1.032l-2.631-2.35-2.568-2.3.567-.707,2.343,2.09Z" transform="translate(-29.444 -47.336)"/><path class="y" d="M88,135.944a4.554,4.554,0,0,1-.206,1.032l-2.631-2.35.341-.912Z" transform="translate(-30.907 -48.527)"/><path class="d" d="M77.24,119.282c-.01.033-.093.278-.229.61-.3.73-.866,1.858-1.507,1.921-.358.036-.415.481-.329,1.058l-1.184-1.058,2.85-2.223Z" transform="translate(-26.853 -43.289)"/><path class="t" d="M93.869,100.326,83.712,110.9l-1.025-.919-2.492-2.227-.776-.693,2.6-3.05.365-.431,3.451-4.042-2.671-5.717-2.1-4.5,6.919-3.268,1.752,2.767,1.045,1.649,3.507,7.147a2.386,2.386,0,0,1-.421,2.714" transform="translate(-28.822 -31.228)"/><path class="v" d="M95.561,101.9l-3.749,3.9-6.408,6.67-1.025-.919c1.533-1.7,3.046-3.614,2.571-4.1-.893-.916-1.865-1.925-.368-1.215s1.579.236.368-.657a4.626,4.626,0,0,0-2.87-.431l.691-.81,2.76-3.232L86.17,98.2l-1.31-2.8,4.022-3.062,2.548-1.941.687,1.085.358.564,3.507,7.147a2.386,2.386,0,0,1-.421,2.714" transform="translate(-30.514 -32.804)"/><path class="w" d="M95.956,102.52l-3.749,3.9c-.488-1.387-1.328-2.645-2.741-2.087a9.581,9.581,0,0,1-4.3.627l2.757-3.232-1.361-2.913,2.711-5.867,3.235-.856.358.564,3.507,7.147a2.386,2.386,0,0,1-.421,2.714" transform="translate(-30.909 -33.422)"/><path class="u" d="M82.787,114.24,80.2,117.983l-.776-.694,2.6-3.049Z" transform="translate(-28.823 -41.46)"/><path class="c" d="M100.361,56.705a3,3,0,0,1,.535.694,3.019,3.019,0,0,1,.361,1.7,3.025,3.025,0,0,1-.2.853,7.835,7.835,0,0,1-4.795,4.2c-1.072.408-1.945.7-2.688.986-2.2.866-3.248,1.752-4.951,5.767a11.777,11.777,0,0,1-5.366,5.442c-3.133,1.7-6.766,2.272-8.936,1.184a6.075,6.075,0,0,1-2.568-2.157c-1.065-1.746-.634-3.952.926-6.521,1.808-2.98,1.888-4.984.743-10.651-.04-.2-.083-.405-.126-.614-.292-1.39-.647-3-1.062-4.874q-.274-1.219-.428-2.439a43.328,43.328,0,0,1,1.327-16.113c.389-1.447.694-2.3.694-2.3l1.453-.182L84.2,30.571l3.852-.478a1.869,1.869,0,0,0,.216-.11,12.674,12.674,0,0,0,3.013-2.638c1.586-1.779,3.029-7.582,3.53-9.775.12-.531.186-.849.186-.849s-.053-.521,2.947,3.4c2.681,3.508,5.418,2.4,5.418,2.4S94.05,33.027,91.279,35.9s-2.595,1.384-3.04,6.341c-.368,4.078,1.45,8.527,2.107,9.978.143.312.229.484.229.484s1.739-.428,3.789,1.623a3.316,3.316,0,0,0,2.123,1.055c1.238.166,2.455-.1,3.872,1.321" transform="translate(-25.827 -6.06)"/><path class="d" d="M75.268,90.959c-1.746-.1-2.051,1.474-2.685,3.421a16.5,16.5,0,0,0-.833,4.625c-1.065-1.745-.634-3.952.926-6.52,1.809-2.98,1.888-4.984.743-10.651l.743.475s.9,3.5.684,4.443-.269,3.879,1.576,3.388.591.922-1.154.819" transform="translate(-25.827 -29.699)"/><path class="f" d="M85.355,71.355,85,75.4l-2.326-.352-.451,4.463A22.779,22.779,0,0,1,73.659,76.7c-.292-1.394-.647-3-1.062-4.874q-.273-1.219-.428-2.439c5.153.75,13.186,1.964,13.186,1.964" transform="translate(-26.191 -25.183)"/><path class="f" d="M89.36,42.244c-.368,4.078,1.45,8.527,2.107,9.977.143.312.229.485.229.485a1.873,1.873,0,0,1,.454-.036,4.877,4.877,0,0,1,3.335,1.659,3.316,3.316,0,0,0,2.123,1.055c1.238.166,2.455-.1,3.872,1.321a3.008,3.008,0,0,1,.535.693,3.023,3.023,0,0,1,.361,1.7,3.021,3.021,0,0,1-.2.852,7.846,7.846,0,0,1-4.795,4.2c-1.072.405-1.945.694-2.688.982-2.2.866-3.248,1.752-4.951,5.767a11.78,11.78,0,0,1-5.366,5.442c2.237-3.684,3.159-8.441,4.483-9.245,2.365-1.437,2.628-2.478,1.655-5.727s-3.189-.631-4.4-2.7-.571-2.92-.78-9.586-2.077-6.984-7.39-10.034c-2.717-1.563-3.573-3.387-3.69-4.894.389-1.447.694-2.3.694-2.3l1.453-.183c.093.06.2.12.309.183a14.138,14.138,0,0,0,1.413.667c1.295.541,3.026.06,4.715-.694.859-.382,1.709-.836,2.482-1.261l3.852-.478a1.868,1.868,0,0,0,.216-.11c.408.82.63,2.061,1.423,2.824,1.244,1.195,2.7-1.121,4.227-3.105S98.956,27.346,98.455,26,98.166,23.48,98.166,21a4.512,4.512,0,0,0-2.236-3.431c.119-.531.185-.85.185-.85s-.053-.52,2.947,3.4a5.783,5.783,0,0,0,3.889,2.542c.073.006.143.013.209.017a3.243,3.243,0,0,0,1.321-.156l-1.367,1.537C100.462,27.04,94.7,33.5,92.5,35.8c-.036.036-.069.073-.1.106-2.768,2.873-2.595,1.384-3.04,6.341" transform="translate(-26.947 -6.06)"/><path class="b" d="M95.565,94.338a9.039,9.039,0,0,1,5.813-4.655c4.051-.866,4.838-1.656,4.838-1.656a10.942,10.942,0,0,1-4.337,2.365c-2.6.71-6.314,3.945-6.314,3.945" transform="translate(-34.682 -31.946)"/><path class="b" d="M89.494,43.242s-2.011,3.215-3.9,3.892-5.329.375-6.945-2.15a12.315,12.315,0,0,1-1.884-4.546s.331,0,.856,0a14.008,14.008,0,0,0,1.414.667c1.294.541,3.026.06,4.715-.693a10.5,10.5,0,0,0,1.2-.063c.511-.13,4.546,2.89,4.546,2.89" transform="translate(-27.859 -14.643)"/><path class="b" d="M97.563,45.214s.14.547.066-2.5-1.662,1.37-.066,2.5" transform="translate(-35.15 -15.118)"/><path class="b" d="M112,25.849s-.527.594-1.367,1.536c-2.651,2.976-8.415,9.437-10.611,11.733-.036.036-.069.073-.1.106-2.767,2.873-2.594,1.384-3.039,6.341-.368,4.078,1.45,8.527,2.107,9.977.143.312.229.485.229.485a1.878,1.878,0,0,1,.455-.036c-.73.693-1.467,1.35-1.609,1.237a67.456,67.456,0,0,1-2.157-6.786c-.736-2.568.471-7.785.2-6.961s-1.619,1.493-.929-.614.308-3.415,1.705-3.146,7.071-7,8.282-7.274,4.469-5.462,5.309-6.46c.073.006.143.013.209.017A3.245,3.245,0,0,0,112,25.849" transform="translate(-34.471 -9.381)"/><path class="d" d="M95.41,75.508l-.076.126a1.677,1.677,0,0,0-.236.561v0a1.554,1.554,0,0,0,.1.823l-.591.216a2.815,2.815,0,0,1-.1-.319,1.966,1.966,0,0,1,.358-1.735,1.7,1.7,0,0,0,.319-1.493c-.149-.717-.624-.826-1.172-.949-.471-.11-1.191-.272-1.081-1.165.083-.66-.156-.833-.68-1.211-.027-.02-.05-.036-.076-.053a5.55,5.55,0,0,1-.929-.817,2.339,2.339,0,0,0-.926-.6l-.123-.054c-.717-.322-1.59-.8-2.578-2.936-1.008-2.177-.75-4.078-.425-6.484a35.948,35.948,0,0,0,.395-4.38c.01-.687-.01-1.357-.05-2a27.329,27.329,0,0,0-1.191-6.553l.6-.206a27.883,27.883,0,0,1,1.264,7.489c.013.418.017.846.01,1.277a36.457,36.457,0,0,1-.4,4.453c-.309,2.306-.557,4.124.375,6.138a5.126,5.126,0,0,0,1.7,2.323,4.319,4.319,0,0,0,.684.355,2.9,2.9,0,0,1,1.141.759,5.3,5.3,0,0,0,.906.777,3.786,3.786,0,0,1,.574.481,1.427,1.427,0,0,1,.362,1.317c-.036.292.027.341.6.471a3.106,3.106,0,0,1,.836.282,1.521,1.521,0,0,1,.81,1.155,2.306,2.306,0,0,1-.395,1.948" transform="translate(-31.338 -16.796)"/><path class="aa" d="M86.949,46.282a27.882,27.882,0,0,1,1.264,7.489,6.108,6.108,0,0,0-.67-.73,27.36,27.36,0,0,0-1.191-6.553Z" transform="translate(-31.339 -16.796)"/><path class="aa" d="M95.219,82.685c-.332-.039-.68-.017-1.022-.023a5.579,5.579,0,0,1-.93-.817,2.336,2.336,0,0,0-.926-.6c-.039-.017-.08-.033-.122-.053a4.518,4.518,0,0,1-.305-.876,4.257,4.257,0,0,0,.683.355,2.928,2.928,0,0,1,1.145.76,5.19,5.19,0,0,0,.9.777,3.785,3.785,0,0,1,.574.481" transform="translate(-33.357 -29.147)"/><path class="aa" d="M100.334,90.39l-.076.126a6.2,6.2,0,0,0-.338-3.229,1.521,1.521,0,0,1,.81,1.155,2.306,2.306,0,0,1-.395,1.948" transform="translate(-36.262 -31.678)"/><path class="b" d="M96.429,91.095s2.605-3.55,6.394-4.181.382-1.261-2.376-.551-4.018,4.732-4.018,4.732" transform="translate(-34.996 -31.229)"/><path class="b" d="M82.992,82.581s5.325.71,8.561,0,4.018-5.206,4.018-5.206-1.414,2.76-12.579,5.206" transform="translate(-30.119 -28.081)"/><path class="ab" d="M89.934,40.31c-.156,2.134-4.1,6.865-8.554,5.146a10.488,10.488,0,0,1-3.823-2.548,10.855,10.855,0,0,1-2.216-3.265l.494-.136a11.551,11.551,0,0,0,2.4,2.754,10.275,10.275,0,0,0,2.933,1.722c4.449,1.719,8.395-3.013,8.554-5.143.02-.259.027-.488.03-.694a4.746,4.746,0,0,1,.179,2.164" transform="translate(-27.342 -13.844)"/><path class="ac" d="M91.2,40.31c-.126,1.719-2.714,5.127-6.042,5.485a5.233,5.233,0,0,1-2.512-.338,10.488,10.488,0,0,1-3.823-2.548,4.8,4.8,0,0,1,.68-.647,10.275,10.275,0,0,0,2.933,1.722A5.958,5.958,0,0,0,88.506,42.7a6.714,6.714,0,0,0,2.482-3.862c.02-.259.027-.488.03-.694A4.746,4.746,0,0,1,91.2,40.31" transform="translate(-28.605 -13.844)"/><path class="ad" d="M94.805,40.31c-.126,1.719-2.714,5.127-6.042,5.485a2.6,2.6,0,0,1,1.456-.786c1.5-.226,1.895-2.306,1.895-2.306A6.714,6.714,0,0,0,94.6,38.84c.02-.259.027-.488.03-.694a4.745,4.745,0,0,1,.179,2.164" transform="translate(-32.214 -13.844)"/><path class="g" d="M90.037,37.993c0,.206-.01.434-.03.694-.159,2.13-4.1,6.865-8.557,5.143a10.28,10.28,0,0,1-2.93-1.722,11.371,11.371,0,0,1-1.991-2.14c-.156-.219-.292-.425-.412-.614l3.584-1,.8-.222h.063l4.8-.01,4.49-.4a.585.585,0,0,1,.189.269" transform="translate(-27.624 -13.691)"/><path class="ae" d="M80.56,38.365A11.444,11.444,0,0,1,76.529,40.2c-.156-.219-.292-.424-.412-.614l3.584-1,.8-.222Z" transform="translate(-27.624 -13.923)"/><path class="af" d="M91.405,37.993c0,.206-.01.434-.03.694a6.714,6.714,0,0,1-2.482,3.862,5.961,5.961,0,0,1-6.075,1.281,10.281,10.281,0,0,1-2.93-1.722,2.831,2.831,0,0,1,1.991.5A3.868,3.868,0,0,0,87,42.077c.936-1.1.117-3-.717-2.157s-2.113.581-3.384,0a5.9,5.9,0,0,1-1.828-1.566l.491-.136.305-.086,4.861-.01,4.49-.4a.585.585,0,0,1,.189.269" transform="translate(-28.993 -13.691)"/><path class="ag" d="M92.358,37.993c0,.206-.01.434-.03.694a6.714,6.714,0,0,1-2.482,3.862c.146-1.536,1.241-2.747.8-3.149a2.192,2.192,0,0,0-.684-.375,2.637,2.637,0,0,0-1.241-.169,2.59,2.59,0,0,0-1.178.415,4.115,4.115,0,0,1-2.2.7,3.691,3.691,0,0,1-2.831-1.755l.305-.086,4.861-.01,4.49-.4a.585.585,0,0,1,.189.269" transform="translate(-29.945 -13.691)"/><path class="h" d="M93.493,69.952v0c-.242.577-.538,1.118-.538,1.118l-1.47,2.409-1.307-.465-.378-.139-4.688.162L86.2,69.686h3.852l1.719-1.1a6.776,6.776,0,0,0,.893.06,6.018,6.018,0,0,0,.846-.06c.484-.073.275.677-.017,1.37" transform="translate(-30.888 -24.887)"/><path class="i" d="M97.187,69.952v0l-.8-.269h-1.1a1.1,1.1,0,0,1,.726-.421c.315-.063.169-.319.342-.624a6.018,6.018,0,0,0,.846-.06c.484-.073.275.677-.017,1.37" transform="translate(-34.582 -24.887)"/><path class="i" d="M90.311,72.448l-.133,1.2L89.8,73.51l-4.688.162L86.2,70.318h1.971l-.266,2.373h2.011Z" transform="translate(-30.889 -25.519)"/><path class="j" d="M89.8,73.211v.3l-4.688.162L86.2,70.318h1.364l-.5,3.053Z" transform="translate(-30.889 -25.519)"/><path class="l" d="M100.395,61.689,96.921,72.808a.5.5,0,0,1-.275.282.518.518,0,0,1-.392.006l-.624-.2-.813-.255a.516.516,0,0,1-.385-.614l.073-.229.664-2.134,2.515-8.046.222-.71a.511.511,0,0,1,.667-.292l1.437.451a.491.491,0,0,1,.319.229.5.5,0,0,1,.066.388" transform="translate(-34.266 -21.987)"/><path class="m" d="M100.271,62.875l-3,9.609a.435.435,0,0,1-.236.243.415.415,0,0,1-.338.006l-.541-.169c.093-.308.139-.591-.076-.6a2.808,2.808,0,0,1-.9-.345l.574-1.842a2.1,2.1,0,0,0,1.987-1.3,22.115,22.115,0,0,0,1.291-4.446.769.769,0,0,0-.07-.514.8.8,0,0,0-.368-.365c-.212-.1-.458-.222-.667-.326l.192-.614a.446.446,0,0,1,.574-.249l1.244.389a.44.44,0,0,1,.329.531" transform="translate(-34.544 -22.473)"/><path class="o" d="M99.766,69.266l-.528,1.7-.166-.05-.69-.219-1.636-.508.535-1.7,1.692.528.631.2Z" transform="translate(-35.111 -24.856)"/><path class="n" d="M100.535,69.518l-.531,1.7L99.314,71a14.683,14.683,0,0,0,.591-1.679Z" transform="translate(-36.043 -25.157)"/><path class="h" d="M99.267,70.876a1.38,1.38,0,0,1-.763.74c-.434.159-.315,1.4-.71,1.872s-.282,1.782-1.008,1.639a23.182,23.182,0,0,1-3.126-1.387l1.56-3.129a.693.693,0,0,1,.654-.411c.027,0,.053,0,.08,0,.886.083,2.664.255,3.1.361.2.05.252.169.212.312" transform="translate(-33.99 -25.476)"/><path class="k" d="M100.479,70.876c-.219-.036-2.814-.455-3.252-.528-.239-.036-.3-.093-.143-.149.027,0,.053,0,.08,0,.886.083,2.664.255,3.1.361.2.05.252.169.212.312" transform="translate(-35.203 -25.476)"/><path class="i" d="M98.678,76.377a.673.673,0,0,0-.67,0c-.385.182.355.491.67.368s0-.368,0-.368" transform="translate(-35.529 -27.686)"/><path class="i" d="M99.378,74.914s-.488-.508-.684-.272c-.352.421.4.989.684.272" transform="translate(-35.785 -27.066)"/><path class="i" d="M100.208,72.719s-.02.027-.053.063c-.126.149-.461.481-.7.209s-.083-.468.156-.511c0,0,0,0,0,0a.514.514,0,0,1,.591.239" transform="translate(-36.051 -26.298)"/><path class="j" d="M100.369,72.719s-.02.027-.053.063a1.088,1.088,0,0,0-.538-.3.514.514,0,0,1,.591.239" transform="translate(-36.211 -26.298)"/><path class="c" d="M79.374,59.1,77.6,67.3s-4.8-1.961-8.671-3.849c-2.389-1.168-4.426-2.306-4.755-2.937a8.49,8.49,0,0,1-.77-2.379,13.35,13.35,0,0,1-.162-3.312,21.761,21.761,0,0,1,2.114-7.642c3.291-7.107,5.581-6.693,5.581-6.693.076.123.143.239.206.358.906,1.712.458,2.99-.252,4.792a29.474,29.474,0,0,0-1.115,3.152c-1.1,3.972-.74,5.406,1.656,7.227,2.1,1.6,6.64,2.764,7.715,3.023.149.036.229.053.229.053" transform="translate(-22.938 -14.694)"/><path class="d" d="M71.163,40.851c-.876.01-2.442.544-3.919,3.686-2.21,4.7-3.05,8.269-3.05,10.22,0,1-.454.667-.932.069a21.758,21.758,0,0,1,2.114-7.641c3.291-7.108,5.581-6.693,5.581-6.693.076.122.143.239.206.358" transform="translate(-22.959 -14.694)"/><path class="f" d="M79.259,60.069a29.156,29.156,0,0,0-1.985,3.8c-.889,2.167-5.319-.64-5.319-.64s-1.46.6-2.913,1.247c-.657-.322-1.288-.64-1.862-.946a8.829,8.829,0,0,1-2.894-1.99,8.479,8.479,0,0,1-.77-2.38l1.609-2.986a15.365,15.365,0,0,1,1.788-4.851,45.05,45.05,0,0,1,2.694-4.281,27.382,27.382,0,0,0-.152-3.175c-.166-1.351.859-.183,1.546,2.8a29.273,29.273,0,0,0-1.115,3.152c-.942,3.4-.813,4.937.743,6.454a10.142,10.142,0,0,0,.913.773,12.391,12.391,0,0,0,2.79,1.477,38.16,38.16,0,0,0,4.924,1.546" transform="translate(-23.052 -15.719)"/><path class="b" d="M74.445,67.974l-.162,1.5a34.673,34.673,0,0,0-4.706.817,19.432,19.432,0,0,1-2.4.624,8.836,8.836,0,0,1-2.894-1.991,8.513,8.513,0,0,1-.77-2.38s6.56-2.611,6.838-2.75c.043-.02.143-.07.276-.14a10.144,10.144,0,0,0,.912.773,12.415,12.415,0,0,0,2.79,1.476,7.71,7.71,0,0,1,.11,2.067" transform="translate(-23.052 -23.102)"/><path class="h" d="M87.853,36.557l-1.145,1.035a1.3,1.3,0,0,1-.714.322,1.264,1.264,0,0,1-.766-.146l-1.476-.793-.76-.408V33.412l.156.01,4.33.226Z" transform="translate(-30.119 -12.126)"/><path class="k" d="M84.064,34.135V36.9l-.687-.368V33.677l.143.007Z" transform="translate(-30.259 -12.222)"/><path class="i" d="M87.853,36.557l-.535.481-.61.554a1.283,1.283,0,0,1-.4.242c.024-.9-.023-2.23-.517-2.409a31.676,31.676,0,0,1-2.8-1.483v-.531h.013l4.472.235Z" transform="translate(-30.119 -12.126)"/><path class="j" d="M87.861,36.557l-.535.481c-.1-.9-.424-1.9-1.34-2.1a9.045,9.045,0,0,1-2.973-1.526l4.472.235Z" transform="translate(-30.127 -12.126)"/><path class="h" d="M88.156,27.565a2.953,2.953,0,0,1-1.639,2.79h0a3.714,3.714,0,0,1-1.884.319,8.414,8.414,0,0,1-3.249-.972l0,.01c-.02.039-.119.182-.567.159a4.491,4.491,0,0,1-1.142-.259c-1.417-.471-1.3-1.433-.654-1.908a1.471,1.471,0,0,1,1.928.206l-.631-1.417s.2-.117.5-.329A6.928,6.928,0,0,0,83.255,23.5a2.423,2.423,0,0,0,.153-.628c.169-1.9.538-2,.538-2s.315,1.752,1.367,2l1.052.259a2.263,2.263,0,0,1,.15.183,7.434,7.434,0,0,1,1.642,4.254" transform="translate(-28.508 -7.572)"/><path class="k" d="M82.214,31.213l-.269-.285-.63-1.417s.2-.116.5-.329Z" transform="translate(-29.511 -10.591)"/><path class="k" d="M80.811,33.766a4.491,4.491,0,0,1-1.142-.259c-1.417-.471-1.3-1.433-.654-1.908-.156.362-.292.816-.119,1.075a1.905,1.905,0,0,0,.687.664,1.943,1.943,0,0,0,.919.259c.179,0,.272.067.308.169" transform="translate(-28.509 -11.468)"/><path class="k" d="M88.125,35.19a3.714,3.714,0,0,1-1.884.319,8.417,8.417,0,0,1-3.248-.972l.013-.348s2.992,1.609,5.12,1" transform="translate(-30.119 -12.407)"/><path class="i" d="M89.2,23.311a2.878,2.878,0,0,1-.919.236c-1.025.1-1.692-1.537-1.778-.691a.7.7,0,0,1-.176.415.678.678,0,0,1-.389.226,2.423,2.423,0,0,0,.153-.628,5.837,5.837,0,0,1,.341-1.732c.11-.249.2-.273.2-.273s.315,1.752,1.367,2c.538.133.8.2.929.229l.126.03s.056.063.149.182" transform="translate(-31.187 -7.572)"/><path class="j" d="M89.2,23.1a3.413,3.413,0,0,1-1.2-.173,2.11,2.11,0,0,1-1.294-1.788c.109-.249.2-.272.2-.272s.315,1.752,1.367,2c.537.133.8.2.929.229" transform="translate(-31.469 -7.572)"/><path class="i" d="M81.456,33.265s-1.36.6-1.788-.441a.43.43,0,0,1-.037-.155.456.456,0,0,1,.1-.336.468.468,0,0,1,.305-.176,1.1,1.1,0,0,1,1.1.329,1.723,1.723,0,0,1,.329.538c.057.185-.017.242-.017.242" transform="translate(-28.899 -11.657)"/><path class="j" d="M81.473,33.023a.528.528,0,0,1-.209-.066c-.219-.14-.584.173-.873,0s0-.538-.368-.458a1.212,1.212,0,0,0-.392.169.453.453,0,0,1,.1-.335.463.463,0,0,1,.305-.176,1.1,1.1,0,0,1,1.1.328,1.731,1.731,0,0,1,.329.538" transform="translate(-28.899 -11.658)"/><path class="i" d="M89.638,29.051l-.577.412-.073-.352-.4-1.944.9.766.185.159a.6.6,0,0,1,.166.219.627.627,0,0,1,.05.268.615.615,0,0,1-.07.266.634.634,0,0,1-.182.206" transform="translate(-32.149 -9.859)"/><path class="j" d="M89.866,29.488l-.577.412-.073-.352a1.368,1.368,0,0,0,.494-.67,1.3,1.3,0,0,0,.007-.508l.185.159a.6.6,0,0,1,.166.219.627.627,0,0,1,.05.268.616.616,0,0,1-.07.266.634.634,0,0,1-.182.206" transform="translate(-32.378 -10.296)"/><path class="o" d="M89.583,32.856c-.278.412-.843.577-1.895-.149,0,0-.01-.007-.013-.01a.209.209,0,0,1-.073-.1.219.219,0,0,1-.013-.123.24.24,0,0,1,.05-.113.221.221,0,0,1,.1-.073l2.007-.78a1.566,1.566,0,0,1-.162,1.351" transform="translate(-31.786 -11.434)"/><path class="n" d="M89.583,32.856a4.011,4.011,0,0,0-1.231-.266,2.118,2.118,0,0,0-.677.106.209.209,0,0,1-.073-.1.219.219,0,0,1-.013-.123.24.24,0,0,1,.05-.113.255.255,0,0,1,.1-.076l2.007-.777a1.566,1.566,0,0,1-.162,1.351" transform="translate(-31.786 -11.434)"/><path class="b" d="M84.85,28.607a.2.2,0,0,1-.173-.093.191.191,0,0,1-.023-.192l.036-.1a1.3,1.3,0,0,1,1.211-.833.194.194,0,0,1,.149.063.205.205,0,0,1,.063.15.216.216,0,0,1-.063.149.2.2,0,0,1-.149.06.854.854,0,0,0-.494.156.868.868,0,0,0-.322.408l-.04.1a.193.193,0,0,1-.2.136" transform="translate(-30.717 -9.939)"/><path class="b" d="M89.126,26.01a.212.212,0,0,1-.176-.325l.017-.024a1.026,1.026,0,0,1,1.172-.428.209.209,0,0,1,.122.1.209.209,0,0,1-.248.3.6.6,0,0,0-.389.01.576.576,0,0,0-.3.242l-.017.027a.206.206,0,0,1-.179.1" transform="translate(-32.269 -9.14)"/><path class="c" d="M88.061,24.2a.1.1,0,0,1-.1-.066.1.1,0,0,1,.026-.116c.05-.047,1.258-1.161,2.26-.647a.1.1,0,0,1,.046.143.094.094,0,0,1-.143.043c-.869-.445-2.007.6-2.017.614a.111.111,0,0,1-.073.03" transform="translate(-31.92 -8.431)"/><path class="c" d="M83.489,26.985h-.013a.093.093,0,0,1-.089-.119,1.685,1.685,0,0,1,1.725-1.454c.069,0,.1.04.1.11a.094.094,0,0,1-.106.1,1.447,1.447,0,0,0-1.005.345,1.473,1.473,0,0,0-.5.929.1.1,0,0,1-.106.09" transform="translate(-30.262 -9.222)"/><path class="f" d="M28.233,37.618a.1.1,0,0,1-.1-.08.091.091,0,0,1,.053-.116c.013-.01,1.377-.763,1.762-3.554.4-2.93,3.709-3.428,3.743-3.431a.09.09,0,0,1,.116.09.093.093,0,0,1-.087.119c-.033,0-3.185.478-3.563,3.252-.4,2.907-1.815,3.677-1.875,3.71a.1.1,0,0,1-.047.01" transform="translate(-10.207 -11.045)"/><path class="b" d="M27.971,39.475l-3.265,3.464a.453.453,0,0,0,.017.644.435.435,0,0,0,.342.123.43.43,0,0,0,.325-.166c.909-1.112,3.428-4.257,2.581-4.065" transform="translate(-8.92 -14.323)"/><path class="c" d="M45.127,22.693,39.439,31.3l-9.208,4.009L31.4,26.781l.412-2.99,4.446-.368Z" transform="translate(-10.972 -8.236)"/><path class="d" d="M35.343,25.385c0,.123-.1.222-.289.308a1.989,1.989,0,0,1-1.394,0c-.192-.086-.289-.185-.289-.308s.1-.222.289-.305a1.989,1.989,0,0,1,1.394,0c.192.083.289.186.289.305" transform="translate(-12.111 -9.056)"/><path class="f" d="M44.914,23.349,39.6,31.386l-8.594,3.743,1.091-7.96c1.367.162,3.349.169,4.015-1.038a3.807,3.807,0,0,0,.518-2.1Z" transform="translate(-11.253 -8.474)"/><path class="p" d="M36.826,36.448a1.814,1.814,0,0,1-.472-.2,2.11,2.11,0,0,1-.843-1.955l.721-.876.117-.136.162-.2a16.582,16.582,0,0,1,2.419,2.29c.017.02.027.036.04.053.7.989-.643,1.437-2.143,1.022" transform="translate(-12.884 -12.007)"/><path class="r" d="M38.378,36.243c-.9-.1-1.052-1.161-1.463-.893a2.079,2.079,0,0,0-.561.9,1.527,1.527,0,0,1-.518-.5,2.359,2.359,0,0,1-.325-1.453l.182-.226.538-.65.043-.02c.023-.006.05-.053.073-.116l.163-.2s.152.116.388.312.571.478.906.79a9.815,9.815,0,0,1,1.125,1.188.574.574,0,0,1,.04.054c.017.412-.063.876-.591.816" transform="translate(-12.883 -12.007)"/><path class="s" d="M37.8,34.363a7.623,7.623,0,0,1-.607.524,2.487,2.487,0,0,0-.816,1.154s-.255-.043-.545-.116a2.359,2.359,0,0,1-.325-1.453l.182-.226c.306-.176.863-.5,1.2-.674.242.2.571.478.906.79" transform="translate(-12.883 -12.184)"/><path class="c" d="M42.524,27.776l-2.969,1.314A10.642,10.642,0,0,0,35,33.822l-1.257-.365-.369-.106a11.826,11.826,0,0,1,.322-2.044,6.9,6.9,0,0,1,2.2-3.9,7.511,7.511,0,0,1,2.711-1.251,9.764,9.764,0,0,1,2.721-.305l.475.763Z" transform="translate(-12.111 -9.38)"/><path class="d" d="M41.8,26.616a7.328,7.328,0,0,0-5.425,1.042c-1.47,1.049-2.362,4.211-2.638,5.8l-.368-.106a11.825,11.825,0,0,1,.322-2.044,6.9,6.9,0,0,1,2.2-3.9,7.516,7.516,0,0,1,2.711-1.251,9.764,9.764,0,0,1,2.721-.305Z" transform="translate(-12.111 -9.381)"/><path class="f" d="M42.366,28.127l-2.731,1.208a9.8,9.8,0,0,0-4.191,4.353l-1.493-.434a10.928,10.928,0,0,1,.295-1.881c.909.149,1.788-.419,2.512-1.749,1.009-1.848,2.8-1.34,2.738-1.958a2.156,2.156,0,0,0-.73-1.029,9.068,9.068,0,0,1,2.5-.278Z" transform="translate(-12.321 -9.564)"/><path class="p" d="M39.189,40.988c-.159,2.077-2.263,2.111-3.623,1.593a2.893,2.893,0,0,1-.81-.442.866.866,0,0,1-.329-.431c-.266-1.019,1.261-.826.942-1.719-.026-.069-.043-.136-.063-.2a2.517,2.517,0,0,1-.08-.631,2.271,2.271,0,0,1,.143-.8s4.055-.368,3.819,2.631" transform="translate(-12.483 -13.915)"/><path class="q" d="M35.542,41.566c-.249.594-.84.73-.786,1.4a.866.866,0,0,1-.329-.431c-.266-1.019,1.261-.826.942-1.719a1.88,1.88,0,0,1-.063-.2.79.79,0,0,1,.236.956" transform="translate(-12.483 -14.738)"/><path class="r" d="M39.662,40.988a1.97,1.97,0,0,1-2.339,1.868,4.334,4.334,0,0,1-1.284-.275.868.868,0,0,1,.006-.621.877.877,0,0,1,.408-.471c.746-.341.945-.962,0-1.363a1.353,1.353,0,0,1-.754-.969,2.284,2.284,0,0,1,.143-.8,5.9,5.9,0,0,1,2.343.305,2.136,2.136,0,0,1,1.477,2.326" transform="translate(-12.956 -13.915)"/><path class="s" d="M40.206,41.17a1.97,1.97,0,0,1-2.339,1.868,1.521,1.521,0,0,1,.272-.434c.389-.425.275-2.071-.192-2.19S37.2,39.4,37.2,39.4s.966-.371,1.53-.557a2.136,2.136,0,0,1,1.477,2.326" transform="translate(-13.5 -14.097)"/><path class="g" d="M74.5,65.321a12.716,12.716,0,0,1-3.447-.87,1.659,1.659,0,0,1-.654-.478,5.433,5.433,0,0,1-1.026-2.628c-.345-2.1-.08-4.619.707-5.455,0,0,.05.02.139.063a6.484,6.484,0,0,1,1.832,1.47h0a7.029,7.029,0,0,1,.518.664,7.875,7.875,0,0,1,.9,1.682c.113.289.216.575.306.853a14.577,14.577,0,0,1,.723,4.7" transform="translate(-25.124 -20.284)"/><path class="af" d="M74.506,65.016a15.2,15.2,0,0,0-.727-4.393.132.132,0,0,0-.013-.033c-.033-.11-.073-.226-.113-.335-.013-.037-.027-.073-.04-.113-.043-.122-.09-.245-.14-.371-.076-.2-.159-.382-.245-.561a7.694,7.694,0,0,0-.654-1.121v0a7.065,7.065,0,0,0-.518-.66h0l-1.175,1.712-.053.073a.2.2,0,0,0-.017-.047,8.9,8.9,0,0,1-.587-3.208c-.089-.043-.14-.063-.14-.063a2.218,2.218,0,0,0-.4.666,9.958,9.958,0,0,0-.305,4.785v0c0,.013,0,.024.006.036.017.106.037.213.06.315a.324.324,0,0,0,.01.054c.023.119.053.239.08.358a.8.8,0,0,1,.023.083c.024.09.05.179.076.266.01.033.024.066.033.1.024.083.054.162.08.239.013.033.024.06.036.09.03.083.063.162.1.242a.359.359,0,0,1,.029.063,3.485,3.485,0,0,0,.306.541l.029.04c.047.063.09.123.136.176a.157.157,0,0,1,.023.03h0a1.663,1.663,0,0,0,.65.478,12.75,12.75,0,0,0,3.448.87s.006-.11,0-.306M73.421,62.19c.511,1.689-.216,1.467-1.142.06l.889-.959c.073.289.159.591.252.9" transform="translate(-25.124 -20.284)"/><path class="ag" d="M74.5,65.7a12.716,12.716,0,0,1-3.447-.87,1.653,1.653,0,0,1-.65-.478h0a.19.19,0,0,0-.024-.029,1.869,1.869,0,0,1-.136-.176l-.03-.039a3.487,3.487,0,0,1-.306-.541.382.382,0,0,0-.029-.063c-.033-.08-.067-.159-.1-.242-.013-.03-.024-.057-.037-.09-.026-.076-.056-.156-.08-.239-.01-.03-.023-.063-.033-.1-.026-.086-.053-.176-.076-.265a.679.679,0,0,0-.023-.083c-.027-.119-.057-.239-.08-.358-.006-.02-.006-.036-.013-.053-.02-.1-.039-.21-.056-.315a.126.126,0,0,1-.007-.037v0a9.954,9.954,0,0,1,.305-4.785c.143.9.282,1.8.352,2.329.054.385.362.418.777.275l.07-.026a8.021,8.021,0,0,0,1.7-1.052v0a7.728,7.728,0,0,1,.654,1.121l-1.513,2.824s.727,1.934,1.875,2.412a3.445,3.445,0,0,1,.915.571c0,.2,0,.305,0,.305" transform="translate(-25.124 -20.664)"/><path class="l" d="M78.925,52.55l-1.038.846a.465.465,0,0,1-.644-.02l-.7-.859L71.194,45.95l-.478-.581a.463.463,0,0,1,.109-.634l1.039-.846a.458.458,0,0,1,.643.02l6.527,8.007a.443.443,0,0,1,.076.338.466.466,0,0,1-.186.3" transform="translate(-25.635 -15.884)"/><path class="m" d="M78.6,52.321,77.766,53a.354.354,0,0,1-.259.1.345.345,0,0,1-.252-.113l-.561-.687a1.841,1.841,0,0,0-.412-1.576c-.617-.743-1.785-2.448-2.479-3.48a.915.915,0,0,0-.275-.269.973.973,0,0,0-.362-.136.947.947,0,0,0-.385.02.917.917,0,0,0-.345.172l-.023.02-.382-.468a.358.358,0,0,1-.06-.272.34.34,0,0,1,.15-.232l.829-.677a.345.345,0,0,1,.259-.1.355.355,0,0,1,.255.113l5.22,6.4a.361.361,0,0,1,.059.272.351.351,0,0,1-.149.236" transform="translate(-26.118 -16.439)"/><path class="o" d="M77.894,50.537,76.6,51.589,76.1,52l-.766-.943-.229-.282,1.788-1.46Z" transform="translate(-27.257 -17.896)"/><path class="n" d="M77.893,50.537,76.6,51.589a1.387,1.387,0,0,1-.707-.956l-.561.421-.229-.282,1.788-1.46Z" transform="translate(-27.257 -17.896)"/><path class="h" d="M75.8,53.144,74.35,54.567l-3.272,4.851s-1.662-3-.833-5.011l.322-.348,1.613-1.742L71.708,50.5s.434-1.005.756-1.958a9.559,9.559,0,0,0,.269-.922.676.676,0,0,1,.024-.086c.1-.322.272-.352.434-.222a1.3,1.3,0,0,1,.365.677,1.288,1.288,0,0,1-.073.767,1.484,1.484,0,0,0,.243,1.838c.017.02.033.043.05.063.036.047.08.1.129.156.577.71,1.9,2.329,1.9,2.329" transform="translate(-25.409 -17.145)"/><path class="k" d="M73.431,54.082l-.285.093-.471-1.815Z" transform="translate(-26.375 -19.002)"/><path class="k" d="M74.3,48.015a2,2,0,0,1-.341.714l-.1-.017c.1-.3.192-.611.269-.923a.689.689,0,0,1,.024-.087.4.4,0,0,1,.149.312" transform="translate(-26.805 -17.312)"/><path class="i" d="M75.291,50.637a1.09,1.09,0,0,1-.694-.9.8.8,0,0,0-.272-.64,1.931,1.931,0,0,0,.5-.75,1.7,1.7,0,0,0-.067-1,1.3,1.3,0,0,1,.365.677,1.288,1.288,0,0,1-.073.767,1.483,1.483,0,0,0,.242,1.838" transform="translate(-26.974 -17.186)"/><path class="i" d="M75.8,55.179l-.425.418-.6.591-.424.415L74.083,57l-1.553,2.3-1.454,2.153a9.029,9.029,0,0,1-1.065-3.733,3.373,3.373,0,0,1,.233-1.278l.322-.348a8.08,8.08,0,0,0,.551,2.286c.591,1.337,3.531-3.238,3.531-3.238a.7.7,0,0,0,.076-.216,1.257,1.257,0,0,0-.335-1.088,2.439,2.439,0,0,1-.484-.989c.577.71,1.9,2.329,1.9,2.329" transform="translate(-25.408 -19.18)"/><path class="j" d="M72.531,62.074l-1.453,2.153a9.019,9.019,0,0,1-1.065-3.733c.368,1.052.923,2.213,1.5,2.037a4.422,4.422,0,0,0,1.022-.458" transform="translate(-25.409 -21.955)"/><path class="j" d="M78.02,55.179l-.425.418a.651.651,0,0,0-.235-.232,1.642,1.642,0,0,1-.419-.438,1.257,1.257,0,0,0-.335-1.088,2.439,2.439,0,0,1-.484-.989c.577.71,1.9,2.329,1.9,2.329" transform="translate(-27.626 -19.18)"/><path class="h" d="M81.115,52.174A7.091,7.091,0,0,1,80.7,53.5c-.11.434-.777.069-.561-.81a3.815,3.815,0,0,1,.305-1.41c.119-.243.285-.319.428-.255.219.1.382.507.242,1.154" transform="translate(-29.068 -18.508)"/><path class="i" d="M81.251,52.186a7.091,7.091,0,0,1-.415,1.321.37.37,0,0,1-.275-.143.384.384,0,0,1-.087-.3h.259a7.918,7.918,0,0,0,.295-1.092,1.873,1.873,0,0,0-.02-.938c.219.1.382.507.242,1.154" transform="translate(-29.204 -18.52)"/><path class="h" d="M80.125,50.853a7.168,7.168,0,0,1-.415,1.324c-.11.431-.777.066-.561-.81a3.756,3.756,0,0,1,.305-1.413.484.484,0,0,1,.226-.249c.292-.14.624.308.445,1.148" transform="translate(-28.709 -18.029)"/><path class="i" d="M80.261,50.853a7.169,7.169,0,0,1-.415,1.324c-.348,0-.365-.66-.365-.66l.319.11.073-.608a5.629,5.629,0,0,0-.057-1.314c.292-.14.624.308.445,1.148" transform="translate(-28.845 -18.029)"/><path class="h" d="M79.006,49.006a8.025,8.025,0,0,1-.491,1.54s0,.006,0,.013c-.133.5-.933.076-.673-.952a4.392,4.392,0,0,1,.365-1.659.505.505,0,0,1,.325-.312c.335-.086.687.434.478,1.37" transform="translate(-28.23 -17.284)"/><path class="i" d="M79.1,49.006c-.066.308-.123.528-.173.694-.146.5-.222.474-.319.846a1.229,1.229,0,0,1-.269-.03.344.344,0,0,1-.245-.5h.428a3.907,3.907,0,0,0,.2-1.086,7.021,7.021,0,0,0-.1-1.3.282.282,0,0,1,.219.03c.242.133.421.61.259,1.34" transform="translate(-28.328 -17.284)"/><path class="j" d="M79.553,49.028c-.066.308-.123.528-.173.694a3.518,3.518,0,0,1,.033-.767,2.428,2.428,0,0,0-.119-1.267c.242.133.421.61.259,1.34" transform="translate(-28.777 -17.307)"/><path class="h" d="M77.671,47.824a8.776,8.776,0,0,1-.5,1.553.227.227,0,0,1-.01.026c-.126.395-.7.143-.714-.567a1.415,1.415,0,0,1,.05-.408,4.394,4.394,0,0,1,.365-1.659.488.488,0,0,1,.359-.322.175.175,0,0,1,.063,0c.3.023.571.531.385,1.377" transform="translate(-27.745 -16.855)"/><path class="k" d="M77.223,46.448a2.279,2.279,0,0,0-.547,1.321,4.9,4.9,0,0,1-.226,1.068,1.4,1.4,0,0,1,.05-.408,4.37,4.37,0,0,1,.365-1.659.488.488,0,0,1,.358-.322" transform="translate(-27.745 -16.857)"/><path class="i" d="M77.794,47.826a8.778,8.778,0,0,1-.5,1.553.225.225,0,0,1-.01.026.316.316,0,0,1-.113.007.432.432,0,0,1-.315-.2.423.423,0,0,1-.047-.371h.362a7.192,7.192,0,0,0,.362-1.2,1.9,1.9,0,0,0-.126-1.188c.3.023.571.531.385,1.377" transform="translate(-27.868 -16.857)"/><path class="t" d="M51.687,125.767,46.242,137.68l-2.462.033-1.974.03-1.086.017,1.391-4.124.869-2.585,2.316-6.862Z" transform="translate(-14.778 -45.07)"/><path class="u" d="M43.6,135.228l-1.8,6.424-1.085.017,1.39-4.124.87-2.585c.345.136.624.269.624.269" transform="translate(-14.778 -48.979)"/><path class="v" d="M52.48,125.767,47.034,137.68l-1.447.02-1.015.013,1.005-4.768-2.674.69.5-1.48,2.688-7.967Z" transform="translate(-15.57 -45.07)"/><path class="w" d="M52.763,125.767,47.318,137.68l-1.447.02,1.722-6.335-3.909.79,2.688-7.967Z" transform="translate(-15.854 -45.07)"/><path class="c" d="M52.838,149.755H39.492l.581-3.2.2-1.109.707-.013,4.814-.067s.71,1.812,3.63,2.286a5.247,5.247,0,0,1,3.411,2.1" transform="translate(-14.332 -52.755)"/><path class="d" d="M40.982,145.469c-.024.415-.149,2.611-.239,4.323H39.492l.58-3.2.2-1.108Z" transform="translate(-14.332 -52.793)"/><path class="f" d="M53.169,149.755H45.51c-.726-1.493-.242-2.559-1.019-2.466a18.973,18.973,0,0,1-4.088-.736l.2-1.109,5.522-.08a3.835,3.835,0,0,0,2.1,1.852,6.3,6.3,0,0,0,1.53.434,5.247,5.247,0,0,1,3.411,2.1" transform="translate(-14.663 -52.755)"/><path class="b" d="M56.953,150.81H50.831a5.62,5.62,0,0,1,1.181-2.538,6.3,6.3,0,0,0,1.53.434,5.248,5.248,0,0,1,3.411,2.1" transform="translate(-18.447 -53.81)"/></g><g transform="translate(24.967 96.549)"><g class="aj"><path class="l" d="M53.277,153.165H39.231l.166-.909H52.742a4.534,4.534,0,0,1,.535.909" transform="translate(-39.205 -151.805)"/></g></g><g transform="translate(30.064 96.549)"><g class="ak"><path class="m" d="M56.611,153.165H48.618c-.133-.514-.2-.909-.2-.909h7.658a4.534,4.534,0,0,1,.535.909" transform="translate(-47.636 -151.805)"/></g></g><g transform="translate(31.762 96.549)"><g class="al"><path class="y" d="M57.486,153.165H51.155l-.325-.909h6.122a4.533,4.533,0,0,1,.535.909" transform="translate(-50.209 -151.805)"/></g></g><g class="e"><path class="c" d="M37.645,149.755H24.3l.687-3.793.1-.518.435-.006,5.086-.073s.71,1.812,3.63,2.286a5.247,5.247,0,0,1,3.411,2.1" transform="translate(-8.818 -52.755)"/><path class="d" d="M25.325,149.8H24.3L24.987,146l.093-.518.438-.006.01.006a23.533,23.533,0,0,0-.2,4.311" transform="translate(-8.819 -52.797)"/><path class="f" d="M38.036,149.755H29.96a7.028,7.028,0,0,0,.222-1.079c.156-1.576-.87-.945-2.054-1.891a5.564,5.564,0,0,0-2.751-.823l.1-.518,5.522-.08a3.922,3.922,0,0,0,2.276,1.925,6.342,6.342,0,0,0,1.354.362,5.247,5.247,0,0,1,3.411,2.1" transform="translate(-9.21 -52.755)"/><path class="b" d="M42.061,150.852H36.589a2.448,2.448,0,0,1,.707-2.466,6.341,6.341,0,0,0,1.354.362,5.248,5.248,0,0,1,3.411,2.1" transform="translate(-13.235 -53.852)"/></g><g transform="translate(14.774 96.549)"><g class="am"><path class="l" d="M38.085,153.165H24.039l.166-.909H37.55a4.534,4.534,0,0,1,.535.909" transform="translate(-23.498 -151.805)"/></g></g><g transform="translate(19.87 96.549)"><g class="an"><path class="m" d="M41.079,153.165h-8.79l.179-.909h8.076a4.534,4.534,0,0,1,.535.909" transform="translate(-31.588 -151.805)"/></g></g><g transform="translate(23.268 96.549)"><g class="ao"><path class="y" d="M42.665,153.165H36.778l-.119-.909H42.13a4.534,4.534,0,0,1,.535.909" transform="translate(-36.572 -151.805)"/></g></g><g class="e"><path class="t" d="M33.231,134.834l-2.183,6.709-1.881.027-2.748.039-.9.013.106-1.563.086-1.317.255-3.909Z" transform="translate(-9.263 -48.933)"/><path class="u" d="M26.419,140.162v3.381l-.9.013.106-1.563.087-1.317c.4-.3.7-.514.7-.514" transform="translate(-9.263 -50.867)"/><path class="v" d="M33.292,134.834l-2.183,6.709-.886.01-1,.017c0-.989-.183-1.739-.826-1.447a4.712,4.712,0,0,1-2.711-.063l.083-1.274.259-3.952Z" transform="translate(-9.323 -48.933)"/><path class="w" d="M33.339,134.834l-2.183,6.709-.886.01.362-2.4s-.319-.5-2.107-.08a5.177,5.177,0,0,1-2.7-.285l.259-3.952Z" transform="translate(-9.37 -48.933)"/><path class="c" d="M68.586,62.026a11.2,11.2,0,0,0-4.964,1.128,5.18,5.18,0,0,1-3.285.528,3.9,3.9,0,0,1-.378-.093,5.009,5.009,0,0,1-2.246-1.483,9.321,9.321,0,0,1-1.061-1.414C55,58.038,53.774,48.787,53.562,47.111c-.02-.169-.033-.262-.033-.262s1.228.2,3.282,3.511c.146.232.292.468.434.7.849,1.357,1.7,2.661,2.376,3.69.856,1.294,1.45,2.164,1.45,2.164l.989-1.281v0l2.326-3.016a10.41,10.41,0,0,0-.119,1.758v.209a7.976,7.976,0,0,0,1.775,5.173,9.2,9.2,0,0,0,2.545,2.276" transform="translate(-19.427 -17.002)"/><path class="d" d="M67.952,59.627a36.842,36.842,0,0,0-2.485,3.636c-1.052,1.769-.634-.222.278-2.379v0l2.326-3.017a10.459,10.459,0,0,0-.119,1.762" transform="translate(-23.534 -21)"/><path class="f" d="M60.356,63.832c-.126-.023-.252-.057-.378-.093a5.009,5.009,0,0,1-2.246-1.483,9.323,9.323,0,0,1-1.061-1.414c-1.649-2.654-2.877-11.905-3.089-13.581.232.066,1.407.544,3.235,3.5l.438.7A20.941,20.941,0,0,1,58,55.706c.156,3.285,1.075,7.821,2.668,7.522.929-.169.484.259-.312.6" transform="translate(-19.445 -17.152)"/><path class="f" d="M63.867,62.516,62.151,65.7l-.017-.04c-.1-.216-.557-1.347.017-2.051.637-.783-.869-.547-.869-.547s-.183-.438.162-.65a1.01,1.01,0,0,1,.607-.113,11.534,11.534,0,0,1,1.815.212" transform="translate(-22.223 -22.608)"/><path class="b" d="M63.987,62.516,62.272,65.7l-.017-.04a2.158,2.158,0,0,1,.153-1.337s.292-1.467,1.065-1.4c0,0,.01-.471-1.026-.418a2.278,2.278,0,0,1-.882-.1,1.01,1.01,0,0,1,.607-.113,11.534,11.534,0,0,1,1.815.212" transform="translate(-22.343 -22.608)"/><path class="f" d="M67.347,63.292s.736,2.127,2,2.774a2.819,2.819,0,0,1,1.509,1.546,16.941,16.941,0,0,0-3.51.757,23.8,23.8,0,0,1-3.839.929,29.37,29.37,0,0,0,3.643-2.638c.481-.487.2-3.368.2-3.368" transform="translate(-23.048 -22.97)"/><path class="b" d="M45.273,131.448c.053.415.09.634.09.643l-.309.054c.073-.226.15-.461.219-.7" transform="translate(-16.351 -47.705)"/><path class="c" d="M47.145,96.669s-1.045,2.087-11.892,6.985c-.315.143-.637.285-.968.431-8.85,3.919-12.377,1.493-13.581.053a3.356,3.356,0,0,1-.544-.843s3.062-11.613,5.5-22.4c.066-.292.129-.58.2-.866.773-3.444,1.47-6.766,1.974-9.563.295-1.649.524-3.113.66-4.31.033-.282.06-.551.083-.807a41.334,41.334,0,0,0-1.145-13.358,28.97,28.97,0,0,0-.856-2.887l.926-.906.232-.229,13.684-1.118s1.308-.355,2.887,4.851,2.84,44.971,2.84,44.971" transform="translate(-7.316 -17)"/><path class="d" d="M26.805,100.287s-4.456,20.091-6.1,23.247a3.356,3.356,0,0,1-.544-.843s3.062-11.614,5.5-22.4Z" transform="translate(-7.316 -36.396)"/><path class="f" d="M33.792,84.11c-.5-.684.136.945.819,1.576s-1.211.9-1.735,0-.528,1.42-.266,2.867c.229,1.254-2.183,1.934-3.5,2.369.773-3.445,1.47-6.766,1.974-9.559.295-1.653.524-3.116.66-4.314l.922-.18.736,3.819a27.014,27.014,0,0,1,1.842,3.839c.475,1.474-.956.266-1.45-.418" transform="translate(-10.563 -27.897)"/><path class="f" d="M34.14,58.1c-.736,2.5.209,8.491-.58,11.434-.631,2.362-1.331,2.76-1.583,2.827.365-2.041.628-3.8.743-5.116a41.339,41.339,0,0,0-1.145-13.359l2.638-1.8.441,1.686A11.738,11.738,0,0,1,34.14,58.1" transform="translate(-11.459 -18.902)"/><path class="f" d="M51.328,96.669s-.358.717-2.84,2.3a73.588,73.588,0,0,1-9.052,4.686c2.419-6.424,5.107-19.411,5.107-19.411S31.549,96.145,35.467,90s6.391-18.366,6.076-23.7-1.895-10.967-5-11.663c-2.32-.521-4.108-4.476-4.861-6.438l.232-.229,1.5-.123,12.187-1s.733-.2,1.762,1.888A19.4,19.4,0,0,1,48.488,51.7a13.56,13.56,0,0,1,.325,1.576c1.423,9,2.515,43.395,2.515,43.395" transform="translate(-11.499 -17)"/><path class="b" d="M49.8,53.274a13.56,13.56,0,0,0-.325-1.576c-.143-.471-.285-.9-.422-1.281-.006-.013-.01-.03-.017-.043s-.017-.043-.023-.066c-1.364-3.746-2.426-3.461-2.426-3.461l-12.187,1c.106.929.4,2.389.4,2.389.156.1,3.076,3.388,5.641,4.4s6.109-.73,6.942-2.462a.776.776,0,0,1,.06-.106c.71,3.55,2.216,11.833,1.955,17.072-.335,6.7-5.744,14.252-5.913,14.483l5.913-6.51s.086,11.776.029,15.722c-.026,1.895.02,4.214.05,6.138,2.481-1.583,2.84-2.3,2.84-2.3s-1.092-34.4-2.515-43.395" transform="translate(-12.484 -16.999)"/><path class="d" d="M47.64,72.6c-.02,4.433-.475,5.7-1.049,7.32a29.879,29.879,0,0,0-1.672,8.109c-.11,1.028-.2,2.017-.265,2.966a66.974,66.974,0,0,0,.169,12.735c.053.415.09.633.09.643l-.309.053-.312.057a62,62,0,0,1-.309-12.925c.073-1.138.173-2.336.306-3.6A30.879,30.879,0,0,1,45.994,79.7c.557-1.56,1-2.787,1.015-7.114A68.207,68.207,0,0,0,44.3,55.246l.6-.183A68.987,68.987,0,0,1,47.64,72.6" transform="translate(-15.901 -19.983)"/><path class="aa" d="M47.737,72.6c-.02,4.433-.475,5.7-1.049,7.32a29.879,29.879,0,0,0-1.672,8.109c-.11,1.028-.2,2.017-.265,2.966-.222.189-.445.375-.671.564.073-1.138.173-2.336.306-3.6A30.879,30.879,0,0,1,46.091,79.7c.557-1.56,1-2.787,1.015-7.114A68.207,68.207,0,0,0,44.4,55.246l.6-.183A68.987,68.987,0,0,1,47.737,72.6" transform="translate(-15.997 -19.983)"/><path class="ab" d="M40.444,53.828a7.439,7.439,0,0,1-6.587-2.969,12.264,12.264,0,0,1-1.808-2.89l.521-.226a12.471,12.471,0,0,0,1.758,2.383v0a7.214,7.214,0,0,0,6.115,2.436c4.111-.452,5.074-3.833,5.289-5.714l.053.013s.392,6.334-5.342,6.965" transform="translate(-11.631 -17.003)"/><path class="ac" d="M41.474,53.828c-.242.027-.484.039-.73.043a7.6,7.6,0,0,1-5.857-3.013,3.95,3.95,0,0,1,.471-.73,7.214,7.214,0,0,0,6.115,2.436c.1-.01.192-.024.285-.037,3.872-.574,4.792-3.839,5-5.677l.053.013s.392,6.334-5.342,6.965" transform="translate(-12.661 -17.003)"/><path class="ad" d="M44.81,53.828c-.242.027-.484.039-.73.043v0a2.477,2.477,0,0,1,1.016-1.34c3.872-.571,4.792-3.839,5-5.677l.053.013s.392,6.334-5.342,6.965" transform="translate(-15.997 -17.003)"/><path class="g" d="M46.03,46.138c-.216,1.881-1.178,5.262-5.289,5.714a7.214,7.214,0,0,1-6.115-2.439,11.76,11.76,0,0,1-1.109-1.358c-.259-.371-.478-.723-.65-1.028l3.67-1.6.438-.192.79-.076,2.84-.269Z" transform="translate(-11.928 -16.292)"/><path class="af" d="M47.031,46.138a7.465,7.465,0,0,1-1.145,3.334,5.421,5.421,0,0,1-4.144,2.38,7.2,7.2,0,0,1-6.115-2.439c.03.029.445-.033.535-.007a1.951,1.951,0,0,1,.547.392,4.88,4.88,0,0,0,1.523.78,8.785,8.785,0,0,0,2.824.245,3.709,3.709,0,0,0,1.818-.375,1.5,1.5,0,0,0-.249-2.688,7.286,7.286,0,0,0-1.825-.017,3.254,3.254,0,0,1-1.516-.511,12.63,12.63,0,0,1-1.746-1.805l.438-.192.79-.076,2.373-.226.468-.043Z" transform="translate(-12.93 -16.292)"/><path class="ag" d="M48.954,49.474a1.96,1.96,0,0,0-.564-2.213,2.478,2.478,0,0,0-.979-.64,4.514,4.514,0,0,0-2.323.319c-.819.2-.942-1.221-1.009-1.788,0,0,.05-.08.126-.216l.468-.043L50.1,46.139a7.468,7.468,0,0,1-1.145,3.334" transform="translate(-15.997 -16.292)"/><path class="ae" d="M38.9,46.292a1.388,1.388,0,0,1-1.659,0c-.591-.4-2.469.933-3.72,1.918-.259-.371-.478-.723-.65-1.028l4.107-1.792.791-.076Z" transform="translate(-11.928 -16.445)"/><path class="h" d="M32.6,83.821a2.321,2.321,0,0,0-.538-1.045,16.818,16.818,0,0,0-.368,3.561c.136,1.019.189,2.081-.179,1.941a.573.573,0,0,1-.189-.126,1.841,1.841,0,0,1-.289-.371c-.036-.06-.073-.12-.106-.18a4.433,4.433,0,0,1-.348-.849c-.139-.508,0,.986-.047,1.344a.283.283,0,0,1-.385.189.542.542,0,0,1-.278-.215,1.053,1.053,0,0,1-.166-.348,2.271,2.271,0,0,1-.089-.521c-.007-.106-.01-.226-.007-.355a14.762,14.762,0,0,1,.18-2.3l.006-.017L29.106,83.1l2.32-3.275.989,1.016.67.687s.229.989.395,1.971c.047.265.083.524.113.766.14,1.158-.849.206-.989-.442" transform="translate(-10.563 -28.969)"/><path class="k" d="M30.138,90.038A.9.9,0,0,1,30,90.4a2.271,2.271,0,0,1-.089-.521c-.007-.106-.01-.226-.007-.355a14.809,14.809,0,0,1,.179-2.3l.007-.017s.126,2.289.05,2.824" transform="translate(-10.852 -31.651)"/><path class="i" d="M30.288,92.211l-.119.06a1.617,1.617,0,0,1-.256-.87.252.252,0,0,1,.229.156,1.941,1.941,0,0,1,.146.654" transform="translate(-10.856 -33.171)"/><path class="k" d="M31.884,90.317c-.036-.06-.073-.119-.106-.179a4.422,4.422,0,0,1-.348-.85l.087-2.475c-.013.643-.027,2.515.262,2.691.206.129.169.514.106.813" transform="translate(-11.406 -31.506)"/><path class="i" d="M32.371,92.363a2.236,2.236,0,0,1-.395-.551l.422-.385s.226.621-.027.936" transform="translate(-11.605 -33.18)"/><path class="i" d="M35.662,85.589c.047.266.083.524.113.766-.428.2-.989-.441-.4-.634a1.14,1.14,0,0,0,.289-.133" transform="translate(-12.746 -31.062)"/><path class="i" d="M32.414,80.839c-.471.352-.475,1.008-1.058.975-.691-.04-.535,1.5-.949,1.54s-.607,1.178-.607,1.178l-.4-.816-.3-.617,2.32-3.275.454.464Z" transform="translate(-10.563 -28.969)"/><path class="j" d="M31.881,80.288c-.564.766-1.7,2.32-2.479,3.428l-.295-.617,2.319-3.275Z" transform="translate(-10.563 -28.969)"/><path class="i" d="M31.136,90.51a.263.263,0,0,1-.146.182.268.268,0,0,1-.236.007,13.965,13.965,0,0,1,.518-4.224l-.089,2.691c-.14-.508,0,.986-.047,1.344" transform="translate(-11.158 -31.383)"/><path class="c" d="M22.663,61.976,26.9,68.5,26.173,70l-2.641,5.465h0c-.047-.066-1.178-1.719-2.578-3.856-2.459-3.746-5.737-8.992-5.385-9.792C16.116,60.56,24.9,50.386,24.9,50.386s0,0,0,.007l1.078,1.937.5.9c.643,1.158.945,3.175.1,4.2Z" transform="translate(-5.639 -18.286)"/><path class="d" d="M21.318,55.917a20.078,20.078,0,0,0-4.377,5.11,1.929,1.929,0,0,0-.089,1.765c.72,1.7,2.462,5.724,4.1,8.819-2.459-3.746-5.737-8.992-5.388-9.791.554-1.261,9.337-11.434,9.337-11.434s0,0,0,.006c.023.1.461,1.925-3.584,5.525" transform="translate(-5.638 -18.286)"/><path class="f" d="M24.365,63.884l3.716,5.724-.726,1.5a7.74,7.74,0,0,1-1.045-1.168c-2.037-2.687-2.227-3.868-3.809-4.725a26.341,26.341,0,0,1-3.707-2.728h3.319s4.1-3.663,3.022-3.9-2.236-1.5-.684-1.57,2.628,1.172,2.787-.763a21.645,21.645,0,0,0-.076-2.824l.5.9a4.874,4.874,0,0,1,.438,1.121,3.594,3.594,0,0,1-.342,3.076l-3.916,4.549Z" transform="translate(-6.821 -19.393)"/><path class="b" d="M28.066,59.686,24.15,64.235l.521.8a3.713,3.713,0,0,1-1.238-.282,28.568,28.568,0,0,0-3.8-1.112h2.25a5.785,5.785,0,0,0,1.739.229c.395-.213,3.55-3.893,3.55-3.893s-1.367-1.052-.561-1.038,1.45.747,1.566-.7c.037-.478.126-1.095.226-1.632a3.592,3.592,0,0,1-.341,3.076" transform="translate(-7.127 -20.545)"/><path class="h" d="M44.312,43.933l-.478.6a1.74,1.74,0,0,1-.488.419,1.77,1.77,0,0,1-1.244.2,1.706,1.706,0,0,1-.594-.252l-1.639-1.085-.554-.368v-3.5l.262.033,4.473.6Z" transform="translate(-14.268 -14.494)"/><path class="k" d="M39.869,43.807l-.554-.368v-3.5l.262.033.275.548c.06.033.036,2.064.017,3.288" transform="translate(-14.268 -14.494)"/><path class="i" d="M44.312,43.933l-.478.6c-.036.047-.076.09-.116.133a1.691,1.691,0,0,1-1.168.517c.063-.866.04-2.183-.66-2.376a10.737,10.737,0,0,1-2.575-1.556v-1.31l4.735.631Z" transform="translate(-14.268 -14.494)"/><path class="j" d="M44.312,43.933l-.478.6c-.036.047-.076.09-.116.133a5.128,5.128,0,0,1-.143-.6c-.179-.968-.724-1.34-1.965-1.689a6.742,6.742,0,0,1-2.3-1.549v-.889l4.735.631Z" transform="translate(-14.268 -14.494)"/><path class="h" d="M43.286,37.655a3.4,3.4,0,0,1-3.013-.033c-.989-.544-1.151-.945-1.656-1.181a2.4,2.4,0,0,0-.773-.2c-.176-.02-.385-.033-.63-.043-1.845-.057-1.447-3.119-.322-2.306s2.071.684.989-.445a2.287,2.287,0,0,1-.269-.332c-.01-.013-.02-.03-.03-.043-.6-.952.166-1.742,1.477-2.92a5.347,5.347,0,0,1,1.984-1.181,5.275,5.275,0,0,1,2.3-.239,5.846,5.846,0,0,1,.464.856c.013.03.027.059.037.086a13.113,13.113,0,0,1,1.049,4.659,3.183,3.183,0,0,1-1.6,3.318" transform="translate(-13.043 -10.416)"/><path class="i" d="M44.661,29.678a13.366,13.366,0,0,0-3.975.763,4.393,4.393,0,0,0-2.253,2.678c-.01-.013-.02-.03-.03-.043a1.125,1.125,0,0,1-.2-.78c.073-.65.733-1.294,1.672-2.14a5.344,5.344,0,0,1,1.984-1.181,5.277,5.277,0,0,1,2.3-.239,4.092,4.092,0,0,1,.285.494c.057.1.117.226.18.362.013.029.026.059.036.086" transform="translate(-13.863 -10.416)"/><path class="j" d="M44.448,29.23a7.018,7.018,0,0,0-4.43,1.291A17.615,17.615,0,0,0,38.21,32.3c.073-.65.733-1.294,1.672-2.14a5.349,5.349,0,0,1,1.985-1.181,5.28,5.28,0,0,1,2.3-.239,4.012,4.012,0,0,1,.285.494" transform="translate(-13.867 -10.416)"/><path class="k" d="M37.884,39.093l-.039.033c-.176-.02-.385-.033-.631-.043-1.845-.056-1.447-3.119-.322-2.306,0,0-1.231.026-.628,1.171.664,1.251,1.619,1.145,1.619,1.145" transform="translate(-13.043 -13.297)"/><path class="k" d="M44.679,41.654a3.4,3.4,0,0,1-3.01-.033c-.989-.544-1.148-.945-1.656-1.184a2.644,2.644,0,0,1-.2-.491c-.259-.873,1.291,1.035,2.511,1.53a4.972,4.972,0,0,0,2.353.179" transform="translate(-14.439 -14.415)"/><path class="i" d="M38.067,39.035s-1.444.02-1.609-1.165c0-.007,0-.013,0-.02a.349.349,0,0,1,.026-.176.341.341,0,0,1,.106-.14.323.323,0,0,1,.159-.076.352.352,0,0,1,.176.006,1.344,1.344,0,0,1,.753.521,2.155,2.155,0,0,1,.285.5,1.081,1.081,0,0,1,.106.551" transform="translate(-13.229 -13.592)"/><path class="j" d="M37.961,38.484c-.375-.14-.637.352-.7.1-.076-.319.415-.6-.08-.759a1.355,1.355,0,0,0-.727.023.358.358,0,0,1,.027-.176.384.384,0,0,1,.106-.143.347.347,0,0,1,.159-.073.352.352,0,0,1,.176.006,1.342,1.342,0,0,1,.753.521,2.188,2.188,0,0,1,.285.5" transform="translate(-13.229 -13.592)"/><path class="i" d="M47.094,35.512a.627.627,0,0,1-.166.156l-.581.371-.08-.684L46,33.083l.047.073.9,1.37.172.262a.583.583,0,0,1-.023.723" transform="translate(-16.695 -12.006)"/><path class="j" d="M47.245,36.335a.626.626,0,0,1-.166.156l-.581.371-.08-.684a.8.8,0,0,1,.342-.368.524.524,0,0,0,.282-.322c.02-.043.037-.093.054-.14l.172.262a.583.583,0,0,1-.023.723" transform="translate(-16.846 -12.829)"/><path class="k" d="M47.12,35.554a.238.238,0,0,1-.04-.229,1.165,1.165,0,0,0-.163-.617,14.913,14.913,0,0,0-.843-1.51l.9,1.37.172.262a.583.583,0,0,1-.023.723" transform="translate(-16.721 -12.048)"/><path class="o" d="M46.81,39.485a3.762,3.762,0,0,1-.915,1.055c-.587.422-1.358.491-2.018-1.055Z" transform="translate(-15.924 -14.33)"/><path class="n" d="M46.81,39.485a3.762,3.762,0,0,1-.915,1.055c-.2-.361-.74-.766-2.018-1.055Z" transform="translate(-15.924 -14.33)"/><path class="b" d="M43.438,34.489a.835.835,0,0,1,.082.415.274.274,0,0,1-.143.249.281.281,0,0,1-.285-.054.808.808,0,0,1-.259-.332.82.82,0,0,1-.083-.411.248.248,0,0,1,.428-.2.823.823,0,0,1,.259.329" transform="translate(-15.514 -12.37)"/><path class="b" d="M47.731,32.509a.8.8,0,0,1,.083.412.278.278,0,0,1-.143.252.269.269,0,0,1-.282-.057.792.792,0,0,1-.259-.329.764.764,0,0,1-.083-.411.272.272,0,0,1,.14-.252.276.276,0,0,1,.285.056.78.78,0,0,1,.259.329" transform="translate(-17.073 -11.651)"/><path class="s" d="M40.988,33.215h-.023a.093.093,0,0,1-.08-.126,1.557,1.557,0,0,1,1.748-1.151.106.106,0,1,1-.03.209,1.328,1.328,0,0,0-1.513.989.1.1,0,0,1-.1.08" transform="translate(-14.836 -11.587)"/><path class="s" d="M45.323,30.795a.093.093,0,0,1-.1-.066.1.1,0,0,1,.023-.113c.037-.033.859-.813,1.533-.714a.106.106,0,0,1-.03.209c-.574-.086-1.347.647-1.357.654a.1.1,0,0,1-.073.03" transform="translate(-16.41 -10.849)"/><path class="ap" d="M123.372,47.667s1.672,5.116,2.924,5.95a2.161,2.161,0,0,0,2.4,0,10.792,10.792,0,0,1-2.661-3.863,2.819,2.819,0,0,0-2.664-2.087" transform="translate(-44.774 -17.299)"/><path class="aq" d="M115.1,46.188s-.939,2.509-1.985,2.927a2.368,2.368,0,0,1-1.877,0l2.4-2.927Z" transform="translate(-40.371 -16.762)"/><path class="aq" d="M183.372,33.079s.942,2.505,1.985,2.924a2.351,2.351,0,0,0,1.881,0l-2.4-2.924Z" transform="translate(-66.549 -12.005)"/><path class="ap" d="M61.534,31.766a2.869,2.869,0,0,1-.166.9,2.959,2.959,0,0,1-1.1,1.427,2.925,2.925,0,0,1-.823.391c-2.09.628-1.672,0-1.672,0s1.985,1.567,2.82,1.463,2.611-2.717,2.611-2.717Z" transform="translate(-20.955 -11.528)"/><path class="g" d="M102.663,127.657s-1.878,3.444-4.072,3.444a2.08,2.08,0,0,1-2.349-1.722s5.01,0,6.421-1.722" transform="translate(-34.928 -46.329)"/><path class="aq" d="M86.072,142.652s-3.444.471-4.386,2.193l-.939,1.722h2.664s.312-3.133,2.661-3.916" transform="translate(-29.304 -51.771)"/><path class="ap" d="M14.69,91.511,11.4,95.27l2.353.783,2.505-3.444Z" transform="translate(-4.136 -33.211)"/><path class="aq" d="M6.481,68.891l3.133,2.976H8.047L6.481,69.83Z" transform="translate(-2.352 -25.002)"/><path class="aq" d="M128.312,85.219h2.505a23.678,23.678,0,0,1-3.905,5.16c-1.892,1.59,1.46-2.817,1.4-5.16" transform="translate(-45.848 -30.927)"/><path class="ap" d="M64.654,87.344s-1.653,4.344-2.731,5.3,2.731-1.34,2.731-1.34l1.062-3.235Z" transform="translate(-22.403 -31.699)"/><path class="ap" d="M161.619,11.032a2.594,2.594,0,0,1-2.021-.982.038.038,0,0,0-.013-.013h0a3.322,3.322,0,0,1-.747-.1,3.834,3.834,0,0,1-2.843-3.1l.415-.05a3.317,3.317,0,0,0,.292.939,3.34,3.34,0,0,0,1.321,1.433,3.25,3.25,0,0,0,.912.368,3,3,0,0,0,.312.06,2.887,2.887,0,0,1-.584-2.309.556.556,0,0,1,.538-.4,1.731,1.731,0,0,1,1.662.952,1.549,1.549,0,0,1-.05,1.679,1.268,1.268,0,0,1-.7.455,2.1,2.1,0,0,0,.982.574,2.057,2.057,0,0,0,1.135-.02l.119.4a2.549,2.549,0,0,1-.723.106M159.31,7.3a.8.8,0,0,0-.086,0,.172.172,0,0,0-.176.14,2.822,2.822,0,0,0,.723,2.167.951.951,0,0,0,.71-.348,1.114,1.114,0,0,0,.179-.61,1.128,1.128,0,0,0-.169-.617,1.263,1.263,0,0,0-.484-.535,1.292,1.292,0,0,0-.7-.2" transform="translate(-56.612 -2.465)"/><path class="ap" d="M61.008,16.342l.119-.4a2.107,2.107,0,0,0,1.138.017,2.081,2.081,0,0,0,.979-.574,1.263,1.263,0,0,1-.7-.452,1.538,1.538,0,0,1-.272-.833,1.559,1.559,0,0,1,.222-.849,1.722,1.722,0,0,1,1.665-.949.555.555,0,0,1,.535.4,2.891,2.891,0,0,1-.584,2.309c.1-.017.2-.036.312-.06a3.356,3.356,0,0,0,.912-.371,3.244,3.244,0,0,0,.766-.617,3.32,3.32,0,0,0,.554-.813,3.37,3.37,0,0,0,.292-.942l.415.053a3.835,3.835,0,0,1-2.843,3.1,3.119,3.119,0,0,1-.743.1h-.006c0,.006-.01.01-.013.017a2.616,2.616,0,0,1-2.021.982,2.553,2.553,0,0,1-.723-.106m1.851-2.9a1.163,1.163,0,0,0,.013,1.231.939.939,0,0,0,.707.345,2.819,2.819,0,0,0,.724-2.167.169.169,0,0,0-.173-.14c-.03,0-.06,0-.09,0a1.3,1.3,0,0,0-.7.2,1.323,1.323,0,0,0-.484.535" transform="translate(-22.141 -4.429)"/><path class="ap" d="M123.246,123.055l-.066-.412a3.275,3.275,0,0,0,.932-.319,3.369,3.369,0,0,0,1.4-1.36,3.379,3.379,0,0,0,.341-.922,2.714,2.714,0,0,0,.05-.312,2.9,2.9,0,0,1-2.289.647.552.552,0,0,1-.415-.524,1.734,1.734,0,0,1,.9-1.692,1.55,1.55,0,0,1,.843-.242,1.533,1.533,0,0,1,.84.245,1.282,1.282,0,0,1,.475.694,2.1,2.1,0,0,0,.544-1,2.059,2.059,0,0,0-.05-1.135l.4-.129a2.588,2.588,0,0,1-.8,2.764l-.013.017a3.152,3.152,0,0,1-.076.75,3.83,3.83,0,0,1-3.013,2.93m1.739-4.718a1.372,1.372,0,0,0-.68.189,1.318,1.318,0,0,0-.693,1.288.175.175,0,0,0,.146.173,2.817,2.817,0,0,0,2.147-.787.951.951,0,0,0-.368-.7.931.931,0,0,0-.551-.166" transform="translate(-44.704 -42.314)"/><path class="aq" d="M185.675,122.824a2.618,2.618,0,0,1-2.276-1.41l-.011-.017a3.2,3.2,0,0,1-.717-.242,3.827,3.827,0,0,1-2.176-3.6l.419.033a3.31,3.31,0,0,0,.48,1.884,3.317,3.317,0,0,0,.631.76,3.385,3.385,0,0,0,.822.541c.1.047.2.086.292.12a2.888,2.888,0,0,1-.117-2.379.556.556,0,0,1,.6-.285,1.728,1.728,0,0,1,1.444,1.261,1.52,1.52,0,0,1,.049.876,1.546,1.546,0,0,1-.428.763,1.275,1.275,0,0,1-.783.305,2.148,2.148,0,0,0,.849.757,2.1,2.1,0,0,0,1.119.206l.037.415c-.08.006-.159.01-.239.01m-2.021-1.809a.956.956,0,0,0,.763-.2,1.167,1.167,0,0,0,.3-.568,1.132,1.132,0,0,0-.043-.637,1.308,1.308,0,0,0-.405-.65,1.269,1.269,0,0,0-.7-.315.168.168,0,0,0-.2.1,2.815,2.815,0,0,0,.283,2.266" transform="translate(-65.503 -42.664)"/><path class="aq" d="M10.023,40.929a3.559,3.559,0,0,1-.594-.047l.083-.408a3.346,3.346,0,0,0,3.4-1.523c.06-.093.11-.182.156-.272a2.878,2.878,0,0,1-2.372-.186.548.548,0,0,1-.209-.634,1.726,1.726,0,0,1,1.43-1.274,1.556,1.556,0,0,1,1.58.584,1.247,1.247,0,0,1,.2.81,2.107,2.107,0,0,0,1.2-1.828l.418.013a2.59,2.59,0,0,1-1.705,2.32l-.02.01a3.193,3.193,0,0,1-.329.68,3.709,3.709,0,0,1-3.248,1.755m2.21-3.952a1.449,1.449,0,0,0-.242.02,1.306,1.306,0,0,0-1.1.972.163.163,0,0,0,.076.209,2.8,2.8,0,0,0,2.283,0,.946.946,0,0,0-.1-.784,1.037,1.037,0,0,0-.919-.421" transform="translate(-3.422 -13.12)"/><path class="aq" d="M7.126,111.834S5.56,118,1.565,118.441s.826-1.407,1.639-3.733,3.922-2.873,3.922-2.873" transform="translate(0 -40.586)"/></g></svg>